<svg class="main-svg" xmlns="http://www.w3.org/2000/svg" xmlns:xlink="http://www.w3.org/1999/xlink" width="1100" height="500" style="" viewBox="0 0 1100 500"><rect x="0" y="0" width="1100" height="500" style="fill: rgb(0, 0, 0); fill-opacity: 1;"/><defs id="defs-51dc81"><g class="clips"/><g class="gradients"/><g class="patterns"/></defs><g class="bglayer"/><g class="layer-below"><g class="imagelayer"/><g class="shapelayer"/></g><g class="cartesianlayer"/><g class="polarlayer"/><g class="smithlayer"/><g class="ternarylayer"/><g class="geolayer"/><g class="funnelarealayer"/><g class="pielayer"><g class="trace" stroke-linejoin="round" style="opacity: 1;"><g class="slice"><path class="surface" d="M281.2885532544602,286.8073300598715a60.32368421052631,60.32368421052631 0 0 0 -55.209605886039164,-84.63101427039778l0,-140.75526315789472a201.07894736842104,201.07894736842104 0 0 1 184.03201962013054,282.103380901326Z" style="pointer-events: none; fill: rgb(31, 119, 180); fill-opacity: 1; stroke-width: 0; stroke: rgb(68, 68, 68); stroke-opacity: 1;"/><g class="slicetext"><text data-notex="1" class="slicetext" transform="translate(359.10067654722195,259.4453125)" text-anchor="middle" x="0" y="0" style="font-family: 'Open Sans', verdana, arial, sans-serif; font-size: 12px; fill: rgb(255, 255, 255); fill-opacity: 1; white-space: pre;"><tspan class="line" dy="0em" x="0" y="0">Belgian Ale</tspan><tspan class="line" dy="1.3em" x="0" y="0">31.6%</tspan></text></g></g><g class="slice"><path class="surface" d="M226.07894736842104,202.17631578947368a60.32368421052631,60.32368421052631 0 0 0 -47.68719971582448,23.37943080090425l-111.27013267025711,-86.2032579557848a201.07894736842104,201.07894736842104 0 0 1 158.9573323860816,-77.93143600301417Z" style="pointer-events: none; fill: rgb(255, 187, 120); fill-opacity: 1; stroke-width: 0; stroke: rgb(68, 68, 68); stroke-opacity: 1;"/><g class="slicetext"><text data-notex="1" class="slicetext" transform="translate(171.45960872265618,144.15333730090538)rotate(63.88283982854614)" text-anchor="middle" x="0" y="0" style="font-family: 'Open Sans', verdana, arial, sans-serif; font-size: 12px; fill: rgb(68, 68, 68); fill-opacity: 1; white-space: pre;"><tspan class="line" dy="0em" x="0" y="0">India Pale Ale (IPA)</tspan><tspan class="line" dy="1.3em" x="0" y="0">14.5%</tspan></text></g></g><g class="slice"><path class="surface" d="M178.39174765259656,225.55574659037794a60.32368421052631,60.32368421052631 0 0 0 -12.279217450833764,43.499837969798l-139.92164005553587,15.296363973743865a201.07894736842104,201.07894736842104 0 0 1 40.930724836112546,-144.99945989932667Z" style="pointer-events: none; fill: rgb(196, 156, 148); fill-opacity: 1; stroke-width: 0; stroke: rgb(68, 68, 68); stroke-opacity: 1;"/><g class="slicetext"><text data-notex="1" class="slicetext" transform="translate(52.756599520586576,259.4453125)" text-anchor="middle" x="0" y="0" style="font-family: 'Open Sans', verdana, arial, sans-serif; font-size: 12px; fill: rgb(68, 68, 68); fill-opacity: 1; white-space: pre;"><tspan class="line" dy="0em" x="0" y="0">Sour Ale</tspan><tspan class="line" dy="1.3em" x="0" y="0">12.2%</tspan></text></g></g><g class="slice"><path class="surface" d="M166.1125302017628,269.05558456017593a60.32368421052631,60.32368421052631 0 0 0 8.6373172548898,25.134640730582l-119.76789979412635,73.94385901176852a201.07894736842104,201.07894736842104 0 0 1 -28.791057516299333,-83.78213576860666Z" style="pointer-events: none; fill: rgb(227, 119, 194); fill-opacity: 1; stroke-width: 0; stroke: rgb(68, 68, 68); stroke-opacity: 1;"/><g class="slicetext"><text data-notex="1" class="slicetext" transform="translate(97.50391036488115,303.4537585851793)rotate(-18.964871655909747)" text-anchor="middle" x="0" y="0" style="font-family: 'Open Sans', verdana, arial, sans-serif; font-size: 12px; fill: rgb(68, 68, 68); fill-opacity: 1; white-space: pre;"><tspan class="line" dy="0em" x="0" y="0">Specialty &amp; Seasonal</tspan><tspan class="line" dy="1.3em" x="0" y="0">7.07%</tspan></text></g></g><g class="slice"><path class="surface" d="M174.74984745665262,294.19022529075795a60.32368421052631,60.32368421052631 0 0 0 18.069250785681565,18.63600358486157l-77.60631462753604,117.42786737644552a201.07894736842104,201.07894736842104 0 0 1 -60.23083595227189,-62.120011949538565Z" style="pointer-events: none; fill: rgb(140, 86, 75); fill-opacity: 1; stroke-width: 0; stroke: rgb(68, 68, 68); stroke-opacity: 1;"/><g class="slicetext"><text data-notex="1" class="slicetext" transform="translate(126.39552888387529,354.89707633777584)rotate(-44.11538651032174)" text-anchor="middle" x="0" y="0" style="font-family: 'Open Sans', verdana, arial, sans-serif; font-size: 12px; fill: rgb(255, 255, 255); fill-opacity: 1; white-space: pre;"><tspan class="line" dy="0em" x="0" y="0">Saison &amp; Farmhouse</tspan><tspan class="line" dy="1.3em" x="0" y="0">6.9%</tspan></text></g></g><g class="slice"><path class="surface" d="M192.81909824233418,312.8262288756195a60.32368421052631,60.32368421052631 0 0 0 21.304183690688408,8.80082872687006l-27.89655268259641,137.963134405809a201.07894736842104,201.07894736842104 0 0 1 -71.01394563562803,-29.336095756233533Z" style="pointer-events: none; fill: rgb(255, 152, 150); fill-opacity: 1; stroke-width: 0; stroke: rgb(68, 68, 68); stroke-opacity: 1;"/><g class="slicetext"><text data-notex="1" class="slicetext" transform="translate(161.57756473331276,410.63802773759454)rotate(-67.55431837217327)" text-anchor="middle" x="0" y="0" style="font-family: 'Open Sans', verdana, arial, sans-serif; font-size: 12px; fill: rgb(68, 68, 68); fill-opacity: 1; white-space: pre;"><tspan class="line" dy="0em" x="0" y="0">Pale Ale</tspan><tspan class="line" dy="1.3em" x="0" y="0">6.12%</tspan></text></g></g><g class="slice"><path class="surface" d="M214.12328193302258,321.6270576024896a60.32368421052631,60.32368421052631 0 0 0 20.821563396137414,0.5415499736979796l20.68709524172423,139.22675101110428a201.07894736842104,201.07894736842104 0 0 1 -69.40521132045805,-1.8051665789932656Z" style="pointer-events: none; fill: rgb(247, 182, 210); fill-opacity: 1; stroke-width: 0; stroke: rgb(68, 68, 68); stroke-opacity: 1;"/><g class="slicetext"><text data-notex="1" class="slicetext" transform="translate(218.66124321372857,430.2099491166527)rotate(-88.51012464896291)" text-anchor="middle" x="0" y="0" style="font-family: 'Open Sans', verdana, arial, sans-serif; font-size: 12px; fill: rgb(68, 68, 68); fill-opacity: 1; white-space: pre;"><tspan class="line" dy="0em" x="0" y="0">Stout</tspan><tspan class="line" dy="1.3em" x="0" y="0">5.52%</tspan></text></g></g><g class="slice"><path class="surface" d="M234.94484532916,322.1686075761875a60.32368421052631,60.32368421052631 0 0 0 11.060584602106049,-2.731078920616838l46.495125979971675,132.85423352966498a201.07894736842104,201.07894736842104 0 0 1 -36.8686153403535,9.103596402056127Z" style="pointer-events: none; fill: rgb(44, 160, 44); fill-opacity: 1; stroke-width: 0; stroke: rgb(68, 68, 68); stroke-opacity: 1;"/><g class="slicetext"><text data-notex="1" class="slicetext" transform="translate(272.18901924980577,436.7787464432371)scale(0.9779885872032578)rotate(76.12996994629748)" text-anchor="middle" x="0" y="0" style="font-family: 'Open Sans', verdana, arial, sans-serif; font-size: 12px; fill: rgb(255, 255, 255); fill-opacity: 1; white-space: pre;"><tspan class="line" dy="0em" x="0" y="0">Lager</tspan><tspan class="line" dy="1.3em" x="0" y="0">3.01%</tspan></text></g></g><g class="slice"><path class="surface" d="M246.00542993126604,319.4375286555707a60.32368421052631,60.32368421052631 0 0 0 9.489768577815985,-4.272255034703016l68.63791932820898,122.88563844869128a201.07894736842104,201.07894736842104 0 0 1 -31.632561926053285,14.240850115676722Z" style="pointer-events: none; fill: rgb(255, 127, 14); fill-opacity: 1; stroke-width: 0; stroke: rgb(68, 68, 68); stroke-opacity: 1;"/><g class="slicetext"><text data-notex="1" class="slicetext" transform="translate(297.58182964290125,415.62814060807534)scale(0.7657434533664778)rotate(65.76292062866423)" text-anchor="middle" x="0" y="0" style="font-family: 'Open Sans', verdana, arial, sans-serif; font-size: 12px; fill: rgb(68, 68, 68); fill-opacity: 1; white-space: pre;"><tspan class="line" dy="0em" x="0" y="0">Hybrid Styles</tspan><tspan class="line" dy="1.3em" x="0" y="0">2.75%</tspan></text></g></g><g class="slice"><path class="surface" d="M255.49519850908203,315.1652736208677a60.32368421052631,60.32368421052631 0 0 0 8.32360210090609,-5.605201861080931l88.05965756365651,109.80683410616912a201.07894736842104,201.07894736842104 0 0 1 -27.745340336353635,18.684006203603104Z" style="pointer-events: none; fill: rgb(127, 127, 127); fill-opacity: 1; stroke-width: 0; stroke: rgb(68, 68, 68); stroke-opacity: 1;"/><g class="slicetext"><text data-notex="1" class="slicetext" transform="translate(325.64861901086755,405.9885410947528)scale(0.7991234494286842)rotate(56.04325762427936)" text-anchor="middle" x="0" y="0" style="font-family: 'Open Sans', verdana, arial, sans-serif; font-size: 12px; fill: rgb(255, 255, 255); fill-opacity: 1; white-space: pre;"><tspan class="line" dy="0em" x="0" y="0">Strong Ale</tspan><tspan class="line" dy="1.3em" x="0" y="0">2.65%</tspan></text></g></g><g class="slice"><path class="surface" d="M263.8188006099881,309.56007175978675a60.32368421052631,60.32368421052631 0 0 0 4.986347860684916,-4.475818612628935l99.69446923858798,99.36325734336826a201.07894736842104,201.07894736842104 0 0 1 -16.621159535616385,14.919395375429787Z" style="pointer-events: none; fill: rgb(188, 189, 34); fill-opacity: 1; stroke-width: 0; stroke: rgb(68, 68, 68); stroke-opacity: 1;"/><g class="slicetext"><text data-notex="1" class="slicetext" transform="translate(347.6979502491349,395.37857362375956)scale(0.5713460298876603)rotate(48.0883874464206)" text-anchor="middle" x="0" y="0" style="font-family: 'Open Sans', verdana, arial, sans-serif; font-size: 12px; fill: rgb(68, 68, 68); fill-opacity: 1; white-space: pre;"><tspan class="line" dy="0em" x="0" y="0">Wheat Beer</tspan><tspan class="line" dy="1.3em" x="0" y="0">1.77%</tspan></text></g></g><g class="slice"><path class="surface" d="M268.80514847067303,305.0842531471578a60.32368421052631,60.32368421052631 0 0 0 3.65767316056305,-4.0163508824161624l108.22903994656843,89.99177195106388a201.07894736842104,201.07894736842104 0 0 1 -12.1922438685435,13.387836274720541Z" style="pointer-events: none; fill: rgb(199, 199, 199); fill-opacity: 1; stroke-width: 0; stroke: rgb(68, 68, 68); stroke-opacity: 1;"/><g class="slicetext"><text data-notex="1" class="slicetext" transform="translate(361.50087675828445,383.87481344411475)scale(0.4727828574172073)rotate(42.32398876681282)" text-anchor="middle" x="0" y="0" style="font-family: 'Open Sans', verdana, arial, sans-serif; font-size: 12px; fill: rgb(68, 68, 68); fill-opacity: 1; white-space: pre;"><tspan class="line" dy="0em" x="0" y="0">Strong Lager</tspan><tspan class="line" dy="1.3em" x="0" y="0">1.43%</tspan></text></g></g><g class="slice"><path class="surface" d="M272.46282163123607,301.0679022647417a60.32368421052631,60.32368421052631 0 0 0 2.7564817078967394,-3.5797286656091627l114.6608305983275,81.63907173130917a201.07894736842104,201.07894736842104 0 0 1 -9.188272359655798,11.932428885363876Z" style="pointer-events: none; fill: rgb(197, 176, 213); fill-opacity: 1; stroke-width: 0; stroke: rgb(68, 68, 68); stroke-opacity: 1;"/><g class="slicetext"><text data-notex="1" class="slicetext" transform="translate(378.88771163173124,378.46570116894793)scale(0.44118077661937716)rotate(37.597181849534365)" text-anchor="middle" x="0" y="0" style="font-family: 'Open Sans', verdana, arial, sans-serif; font-size: 12px; fill: rgb(68, 68, 68); fill-opacity: 1; white-space: pre;"><tspan class="line" dy="0em" x="0" y="0">Porter</tspan><tspan class="line" dy="1.3em" x="0" y="0">1.19%</tspan></text></g></g><g class="slice"><path class="surface" d="M275.2193033391328,297.4881735991325a60.32368421052631,60.32368421052631 0 0 0 2.471164616106324,-3.7600161215010104l120.42688136924225,72.86570078114015a201.07894736842104,201.07894736842104 0 0 1 -8.237215387021081,12.533387071670035Z" style="pointer-events: none; fill: rgb(148, 103, 189); fill-opacity: 1; stroke-width: 0; stroke: rgb(68, 68, 68); stroke-opacity: 1;"/><g class="slicetext"><text data-notex="1" class="slicetext" transform="translate(387.14896843131913,366.7521189776994)scale(0.4395232484168358)rotate(33.31379021530273)" text-anchor="middle" x="0" y="0" style="font-family: 'Open Sans', verdana, arial, sans-serif; font-size: 12px; fill: rgb(255, 255, 255); fill-opacity: 1; white-space: pre;"><tspan class="line" dy="0em" x="0" y="0">Pilsner</tspan><tspan class="line" dy="1.3em" x="0" y="0">1.19%</tspan></text></g></g><g class="slice"><path class="surface" d="M277.69046795523917,293.7281574776315a60.32368421052631,60.32368421052631 0 0 0 1.8246285356498901,-3.2366436976898325l124.68434795242533,65.3135321531972a201.07894736842104,201.07894736842104 0 0 1 -6.082095118832967,10.788812325632776Z" style="pointer-events: none; fill: rgb(174, 199, 232); fill-opacity: 1; stroke-width: 0; stroke: rgb(68, 68, 68); stroke-opacity: 1;"/><g class="slicetext"><text data-notex="1" class="slicetext" transform="translate(391.19800441208827,354.3526794574155)scale(0.3512447511927616)rotate(29.41173572449128)" text-anchor="middle" x="0" y="0" style="font-family: 'Open Sans', verdana, arial, sans-serif; font-size: 12px; fill: rgb(68, 68, 68); fill-opacity: 1; white-space: pre;"><tspan class="line" dy="0em" x="0" y="0">Dark Lager</tspan><tspan class="line" dy="1.3em" x="0" y="0">0.98%</tspan></text></g></g><g class="slice"><path class="surface" d="M279.51509649088905,290.49151377994167a60.32368421052631,60.32368421052631 0 0 0 1.058895580255026,-2.1218987928661703l127.15510430635372,60.36243496984281a201.07894736842104,201.07894736842104 0 0 1 -3.52965193418342,7.072995976220568Z" style="pointer-events: none; fill: rgb(214, 39, 40); fill-opacity: 1; stroke-width: 0; stroke: rgb(68, 68, 68); stroke-opacity: 1;"/><g class="slicetext"><text data-notex="1" class="slicetext" transform="translate(399.4372887975286,348.20806943615924)scale(0.23530267441297897)rotate(26.52066807902645)" text-anchor="middle" x="0" y="0" style="font-family: 'Open Sans', verdana, arial, sans-serif; font-size: 12px; fill: rgb(255, 255, 255); fill-opacity: 1; white-space: pre;"><tspan class="line" dy="0em" x="0" y="0">Other Ales</tspan><tspan class="line" dy="1.3em" x="0" y="0">0.626%</tspan></text></g></g><g class="slice"><path class="surface" d="M280.57399207114406,288.36961498707547a60.32368421052631,60.32368421052631 0 0 0 0.7145611833161097,-1.5622849272039503l128.8224137340913,56.71710347303359a201.07894736842104,201.07894736842104 0 0 1 -2.3818706110536993,5.2076164240131675Z" style="pointer-events: none; fill: rgb(152, 223, 138); fill-opacity: 1; stroke-width: 0; stroke: rgb(68, 68, 68); stroke-opacity: 1;"/><g class="slicetext"><text data-notex="1" class="slicetext" transform="translate(403.3717197896189,343.00986382221964)scale(0.17287045430023273)rotate(24.57850913928172)" text-anchor="middle" x="0" y="0" style="font-family: 'Open Sans', verdana, arial, sans-serif; font-size: 12px; fill: rgb(68, 68, 68); fill-opacity: 1; white-space: pre;"><tspan class="line" dy="0em" x="0" y="0">Low Alcohol</tspan><tspan class="line" dy="1.3em" x="0" y="0">0.453%</tspan></text></g></g></g><g class="trace" stroke-linejoin="round" style="opacity: 1;"><g class="slice"><path class="surface" d="M738.6459267967786,248.90229924444105a57.30749999999999,57.30749999999999 0 0 0 -55.670926796778495,-43.709799244441044l0,-133.71749999999997a191.02499999999998,191.02499999999998 0 0 1 185.56975598926167,145.6993308148035Z" style="pointer-events: none; fill: rgb(255, 187, 120); fill-opacity: 1; stroke-width: 0; stroke: rgb(68, 68, 68); stroke-opacity: 1;"/><g class="slicetext"><text data-notex="1" class="slicetext" transform="translate(757.0192146824826,163.2471848199997)rotate(-51.8629149139241)" text-anchor="middle" x="0" y="0" style="font-family: 'Open Sans', verdana, arial, sans-serif; font-size: 12px; fill: rgb(68, 68, 68); fill-opacity: 1; white-space: pre;"><tspan class="line" dy="0em" x="0" y="0">India Pale Ale (IPA)</tspan><tspan class="line" dy="1.3em" x="0" y="0">21.2%</tspan></text></g></g><g class="slice"><path class="surface" d="M682.975,205.1925a57.30749999999999,57.30749999999999 0 0 0 -46.53161144785566,23.856660065615888l-108.57376004499655,-78.05195984689624a191.02499999999998,191.02499999999998 0 0 1 155.1053714928522,-79.52220021871963Z" style="pointer-events: none; fill: rgb(255, 152, 150); fill-opacity: 1; stroke-width: 0; stroke: rgb(68, 68, 68); stroke-opacity: 1;"/><g class="slicetext"><text data-notex="1" class="slicetext" transform="translate(626.6246292002301,145.89500576776004)rotate(62.85588037753189)" text-anchor="middle" x="0" y="0" style="font-family: 'Open Sans', verdana, arial, sans-serif; font-size: 12px; fill: rgb(68, 68, 68); fill-opacity: 1; white-space: pre;"><tspan class="line" dy="0em" x="0" y="0">Pale Ale</tspan><tspan class="line" dy="1.3em" x="0" y="0">15.1%</tspan></text></g></g><g class="slice"><path class="surface" d="M636.4433885521444,229.0491600656159a57.30749999999999,57.30749999999999 0 0 0 -10.58291984430943,28.75191755512593l-133.26723968171854,-10.964152218269065a191.02499999999998,191.02499999999998 0 0 1 35.27639948103143,-95.8397251837531Z" style="pointer-events: none; fill: rgb(31, 119, 180); fill-opacity: 1; stroke-width: 0; stroke: rgb(68, 68, 68); stroke-opacity: 1;"/><g class="slicetext"><text data-notex="1" class="slicetext" transform="translate(555.3064549557938,212.25310117445053)rotate(20.20750114885641)" text-anchor="middle" x="0" y="0" style="font-family: 'Open Sans', verdana, arial, sans-serif; font-size: 12px; fill: rgb(255, 255, 255); fill-opacity: 1; white-space: pre;"><tspan class="line" dy="0em" x="0" y="0">Belgian Ale</tspan><tspan class="line" dy="1.3em" x="0" y="0">8.61%</tspan></text></g></g><g class="slice"><path class="surface" d="M625.8604687078349,257.8010776207418a57.30749999999999,57.30749999999999 0 0 0 5.735834892511795,30.083545924275587l-119.88362493252436,59.2307882717073a191.02499999999998,191.02499999999998 0 0 1 -19.119449641705984,-100.27848641425196Z" style="pointer-events: none; fill: rgb(227, 119, 194); fill-opacity: 1; stroke-width: 0; stroke: rgb(68, 68, 68); stroke-opacity: 1;"/><g class="slicetext"><text data-notex="1" class="slicetext" transform="translate(560.7580142065044,282.6926064998395)rotate(-10.794655166319103)" text-anchor="middle" x="0" y="0" style="font-family: 'Open Sans', verdana, arial, sans-serif; font-size: 12px; fill: rgb(68, 68, 68); fill-opacity: 1; white-space: pre;"><tspan class="line" dy="0em" x="0" y="0">Specialty &amp; Seasonal</tspan><tspan class="line" dy="1.3em" x="0" y="0">8.61%</tspan></text></g></g><g class="slice"><path class="surface" d="M631.5963036003467,287.8846235450174a57.30749999999999,57.30749999999999 0 0 0 17.472155764860766,20.815983143977075l-79.11526148118257,107.80141560765381a191.02499999999998,191.02499999999998 0 0 1 -58.24051921620256,-69.38661047992359Z" style="pointer-events: none; fill: rgb(140, 86, 75); fill-opacity: 1; stroke-width: 0; stroke: rgb(68, 68, 68); stroke-opacity: 1;"/><g class="slicetext"><text data-notex="1" class="slicetext" transform="translate(583.8530821764105,341.733510655511)scale(0.9943790910905637)rotate(-40.00883735727666)" text-anchor="middle" x="0" y="0" style="font-family: 'Open Sans', verdana, arial, sans-serif; font-size: 12px; fill: rgb(255, 255, 255); fill-opacity: 1; white-space: pre;"><tspan class="line" dy="0em" x="0" y="0">Saison &amp; Farmhouse</tspan><tspan class="line" dy="1.3em" x="0" y="0">7.62%</tspan></text></g></g><g class="slice"><path class="surface" d="M649.0684593652074,308.70060668899447a57.30749999999999,57.30749999999999 0 0 0 24.222373781455495,10.2827224321429l-22.596389324453074,131.79443461598726a191.02499999999998,191.02499999999998 0 0 1 -80.74124593818499,-34.27574144047634Z" style="pointer-events: none; fill: rgb(196, 156, 148); fill-opacity: 1; stroke-width: 0; stroke: rgb(68, 68, 68); stroke-opacity: 1;"/><g class="slicetext"><text data-notex="1" class="slicetext" transform="translate(622.6015414347654,396.90075160540584)rotate(-66.99812648025738)" text-anchor="middle" x="0" y="0" style="font-family: 'Open Sans', verdana, arial, sans-serif; font-size: 12px; fill: rgb(68, 68, 68); fill-opacity: 1; white-space: pre;"><tspan class="line" dy="0em" x="0" y="0">Sour Ale</tspan><tspan class="line" dy="1.3em" x="0" y="0">7.37%</tspan></text></g></g><g class="slice"><path class="surface" d="M673.290833146663,318.9833291211374a57.30749999999999,57.30749999999999 0 0 0 19.865583387617942,-0.08751089313869329l23.756638579988785,131.59024253199695a191.02499999999998,191.02499999999998 0 0 1 -66.2186112920598,0.29170297712897764Z" style="pointer-events: none; fill: rgb(247, 182, 210); fill-opacity: 1; stroke-width: 0; stroke: rgb(68, 68, 68); stroke-opacity: 1;"/><g class="slicetext"><text data-notex="1" class="slicetext" transform="translate(686.7316708486358,421.84839038587154)rotate(89.74760507617793)" text-anchor="middle" x="0" y="0" style="font-family: 'Open Sans', verdana, arial, sans-serif; font-size: 12px; fill: rgb(68, 68, 68); fill-opacity: 1; white-space: pre;"><tspan class="line" dy="0em" x="0" y="0">Stout</tspan><tspan class="line" dy="1.3em" x="0" y="0">5.55%</tspan></text></g></g><g class="slice"><path class="surface" d="M693.1564165342809,318.8958182279987a57.30749999999999,57.30749999999999 0 0 0 18.11610594472317,-6.562096936083745l66.02755245100951,116.27868301446821a191.02499999999998,191.02499999999998 0 0 1 -60.387019815743905,21.873656453612483Z" style="pointer-events: none; fill: rgb(127, 127, 127); fill-opacity: 1; stroke-width: 0; stroke: rgb(68, 68, 68); stroke-opacity: 1;"/><g class="slicetext"><text data-notex="1" class="slicetext" transform="translate(737.0714307661478,402.8757172799352)rotate(70.08837357276684)" text-anchor="middle" x="0" y="0" style="font-family: 'Open Sans', verdana, arial, sans-serif; font-size: 12px; fill: rgb(255, 255, 255); fill-opacity: 1; white-space: pre;"><tspan class="line" dy="0em" x="0" y="0">Strong Ale</tspan><tspan class="line" dy="1.3em" x="0" y="0">5.38%</tspan></text></g></g><g class="slice"><path class="surface" d="M711.2725224790041,312.33372129191497a57.30749999999999,57.30749999999999 0 0 0 12.583780546447352,-9.673185697986243l95.38970705938667,93.70791638583366a191.02499999999998,191.02499999999998 0 0 1 -41.94593515482451,32.243952326620814Z" style="pointer-events: none; fill: rgb(44, 160, 44); fill-opacity: 1; stroke-width: 0; stroke: rgb(68, 68, 68); stroke-opacity: 1;"/><g class="slicetext"><text data-notex="1" class="slicetext" transform="translate(785.4790522283345,390.834591765575)rotate(52.45042242567786)" text-anchor="middle" x="0" y="0" style="font-family: 'Open Sans', verdana, arial, sans-serif; font-size: 12px; fill: rgb(255, 255, 255); fill-opacity: 1; white-space: pre;"><tspan class="line" dy="0em" x="0" y="0">Lager</tspan><tspan class="line" dy="1.3em" x="0" y="0">4.42%</tspan></text></g></g><g class="slice"><path class="surface" d="M723.8563030254514,302.6605355939287a57.30749999999999,57.30749999999999 0 0 0 7.067788447023809,-8.77528136181835l111.88121343577556,73.23225987492417a191.02499999999998,191.02499999999998 0 0 1 -23.5592948234127,29.25093787272783Z" style="pointer-events: none; fill: rgb(188, 189, 34); fill-opacity: 1; stroke-width: 0; stroke: rgb(68, 68, 68); stroke-opacity: 1;"/><g class="slicetext"><text data-notex="1" class="slicetext" transform="translate(809.5172021202646,361.1704838037608)scale(0.8283859462096366)rotate(38.84866909399409)" text-anchor="middle" x="0" y="0" style="font-family: 'Open Sans', verdana, arial, sans-serif; font-size: 12px; fill: rgb(68, 68, 68); fill-opacity: 1; white-space: pre;"><tspan class="line" dy="0em" x="0" y="0">Wheat Beer</tspan><tspan class="line" dy="1.3em" x="0" y="0">3.13%</tspan></text></g></g><g class="slice"><path class="surface" d="M730.9240914724753,293.88525423211036a57.30749999999999,57.30749999999999 0 0 0 5.116991560362481,-9.748702108401478l123.82086040995468,50.485288288654054a191.02499999999998,191.02499999999998 0 0 1 -17.056638534541605,32.495673694671595Z" style="pointer-events: none; fill: rgb(148, 103, 189); fill-opacity: 1; stroke-width: 0; stroke: rgb(68, 68, 68); stroke-opacity: 1;"/><g class="slicetext"><text data-notex="1" class="slicetext" transform="translate(835.6826879273568,339.4104852777332)scale(0.9403647350867276)rotate(27.694510233659685)" text-anchor="middle" x="0" y="0" style="font-family: 'Open Sans', verdana, arial, sans-serif; font-size: 12px; fill: rgb(255, 255, 255); fill-opacity: 1; white-space: pre;"><tspan class="line" dy="0em" x="0" y="0">Pilsner</tspan><tspan class="line" dy="1.3em" x="0" y="0">3.06%</tspan></text></g></g><g class="slice"><path class="surface" d="M736.0410830328377,284.1365521237089a57.30749999999999,57.30749999999999 0 0 0 2.725875101159667,-8.544303889571191l130.1812356459939,30.548579212987946a191.02499999999998,191.02499999999998 0 0 1 -9.08625033719889,28.481012965237305Z" style="pointer-events: none; fill: rgb(255, 127, 14); fill-opacity: 1; stroke-width: 0; stroke: rgb(68, 68, 68); stroke-opacity: 1;"/><g class="slicetext"><text data-notex="1" class="slicetext" transform="translate(838.4712229383892,309.9318514908462)scale(0.6786018428030024)rotate(17.694156739368623)" text-anchor="middle" x="0" y="0" style="font-family: 'Open Sans', verdana, arial, sans-serif; font-size: 12px; fill: rgb(68, 68, 68); fill-opacity: 1; white-space: pre;"><tspan class="line" dy="0em" x="0" y="0">Hybrid Styles</tspan><tspan class="line" dy="1.3em" x="0" y="0">2.49%</tspan></text></g></g><g class="slice"><path class="surface" d="M738.7669581339974,275.5922482341377a57.30749999999999,57.30749999999999 0 0 0 1.236586937806561,-7.4447175132629555l133.06660516754255,13.17757168204105a191.02499999999998,191.02499999999998 0 0 1 -4.121956459355204,24.815725044209852Z" style="pointer-events: none; fill: rgb(199, 199, 199); fill-opacity: 1; stroke-width: 0; stroke: rgb(68, 68, 68); stroke-opacity: 1;"/><g class="slicetext"><text data-notex="1" class="slicetext" transform="translate(847.427170412011,287.9487312531021)scale(0.602996149871354)rotate(9.43087419138186)" text-anchor="middle" x="0" y="0" style="font-family: 'Open Sans', verdana, arial, sans-serif; font-size: 12px; fill: rgb(68, 68, 68); fill-opacity: 1; white-space: pre;"><tspan class="line" dy="0em" x="0" y="0">Strong Lager</tspan><tspan class="line" dy="1.3em" x="0" y="0">2.1%</tspan></text></g></g><g class="slice"><path class="surface" d="M740.003545071804,268.1475307208747a57.30749999999999,57.30749999999999 0 0 0 0.2696236536851984,-6.681656900494892l133.69572702614136,-2.412961085780365a191.02499999999998,191.02499999999998 0 0 1 -0.8987455122839947,22.272189668316308Z" style="pointer-events: none; fill: rgb(214, 39, 40); fill-opacity: 1; stroke-width: 0; stroke: rgb(68, 68, 68); stroke-opacity: 1;"/><g class="slicetext"><text data-notex="1" class="slicetext" transform="translate(854.9352538651394,267.67748417220594)scale(0.5762171599066369)rotate(2.3107921807063576)" text-anchor="middle" x="0" y="0" style="font-family: 'Open Sans', verdana, arial, sans-serif; font-size: 12px; fill: rgb(255, 255, 255); fill-opacity: 1; white-space: pre;"><tspan class="line" dy="0em" x="0" y="0">Other Ales</tspan><tspan class="line" dy="1.3em" x="0" y="0">1.86%</tspan></text></g></g><g class="slice"><path class="surface" d="M740.2731687254892,261.46587382037984a57.30749999999999,57.30749999999999 0 0 0 -0.46702413891621575,-6.339513439322521l132.60600403533684,-17.205159110866248a191.02499999999998,191.02499999999998 0 0 1 1.5567471297207192,21.131711464408404Z" style="pointer-events: none; fill: rgb(174, 199, 232); fill-opacity: 1; stroke-width: 0; stroke: rgb(68, 68, 68); stroke-opacity: 1;"/><g class="slicetext"><text data-notex="1" class="slicetext" transform="translate(854.3928848505536,248.19486012755047)scale(0.5475072260151312)rotate(-4.2132984552299035)" text-anchor="middle" x="0" y="0" style="font-family: 'Open Sans', verdana, arial, sans-serif; font-size: 12px; fill: rgb(68, 68, 68); fill-opacity: 1; white-space: pre;"><tspan class="line" dy="0em" x="0" y="0">Dark Lager</tspan><tspan class="line" dy="1.3em" x="0" y="0">1.77%</tspan></text></g></g><g class="slice"><path class="surface" d="M739.8061445865729,255.1263603810573a57.30749999999999,57.30749999999999 0 0 0 -1.1221829906684746,-6.067385422178298l129.9875770571104,-31.36239176261561a191.02499999999998,191.02499999999998 0 0 1 3.7406099688949155,20.22461807392766Z" style="pointer-events: none; fill: rgb(197, 176, 213); fill-opacity: 1; stroke-width: 0; stroke: rgb(68, 68, 68); stroke-opacity: 1;"/><g class="slicetext"><text data-notex="1" class="slicetext" transform="translate(858.4816457772702,228.24205476899195)scale(0.5785976970568332)rotate(-10.478631270104927)" text-anchor="middle" x="0" y="0" style="font-family: 'Open Sans', verdana, arial, sans-serif; font-size: 12px; fill: rgb(68, 68, 68); fill-opacity: 1; white-space: pre;"><tspan class="line" dy="0em" x="0" y="0">Porter</tspan><tspan class="line" dy="1.3em" x="0" y="0">1.71%</tspan></text></g></g><g class="slice"><path class="surface" d="M738.6839615959045,249.05897495887902a57.30749999999999,57.30749999999999 0 0 0 -0.03803479912593559,-0.1566757144378741l129.89882919248322,-31.727968429637315a191.02499999999998,191.02499999999998 0 0 1 0.12678266375311864,0.5222523814595803Z" style="pointer-events: none; fill: rgb(152, 223, 138); fill-opacity: 1; stroke-width: 0; stroke: rgb(68, 68, 68); stroke-opacity: 1;"/><g class="slicetext"><text data-notex="1" class="slicetext" transform="translate(867.982205770932,217.53342630785184)scale(0.017174048942606705)rotate(-13.645233129484893)" text-anchor="middle" x="0" y="0" style="font-family: 'Open Sans', verdana, arial, sans-serif; font-size: 12px; fill: rgb(68, 68, 68); fill-opacity: 1; white-space: pre;"><tspan class="line" dy="0em" x="0" y="0">Low Alcohol</tspan><tspan class="line" dy="1.3em" x="0" y="0">0.0448%</tspan></text></g></g></g></g><g class="iciclelayer"/><g class="treemaplayer"/><g class="sunburstlayer"/><g class="glimages"/><defs id="topdefs-51dc81"><g class="clips"/><clipPath id="legend51dc81"><rect width="172" height="333" x="0" y="0"/></clipPath></defs><g class="layer-above"><g class="imagelayer"/><g class="shapelayer"/></g><g class="infolayer"><g class="legend" pointer-events="all" transform="translate(916.45,96)"><rect class="bg" shape-rendering="crispEdges" style="stroke: rgb(68, 68, 68); stroke-opacity: 1; fill: rgb(0, 0, 0); fill-opacity: 1; stroke-width: 0px;" width="172" height="333" x="0" y="0"/><g class="scrollbox" transform="" clip-path="url(#legend51dc81)"><g class="groups"><g class="traces" transform="translate(0,14.5)" style="opacity: 1;"><text class="legendtext" text-anchor="start" x="40" y="4.680000000000001" style="font-family: 'Open Sans', verdana, arial, sans-serif; font-size: 12px; fill: rgb(42, 63, 95); fill-opacity: 1; white-space: pre;">Belgian Ale</text><g class="layers" style="opacity: 1;"><g class="legendfill"/><g class="legendlines"/><g class="legendsymbols"><g class="legendpoints"><path class="legendpie" d="M6,6H-6V-6H6Z" transform="translate(20,0)" style="fill: rgb(31, 119, 180); fill-opacity: 1; stroke-width: 0; stroke: rgb(68, 68, 68); stroke-opacity: 1;"/></g></g></g><rect class="legendtoggle" x="0" y="-9.5" width="166.046875" height="19" style="fill: rgb(0, 0, 0); fill-opacity: 0;"/></g><g class="traces" transform="translate(0,33.5)" style="opacity: 1;"><text class="legendtext" text-anchor="start" x="40" y="4.680000000000001" style="font-family: 'Open Sans', verdana, arial, sans-serif; font-size: 12px; fill: rgb(42, 63, 95); fill-opacity: 1; white-space: pre;">India Pale Ale (IPA)</text><g class="layers" style="opacity: 1;"><g class="legendfill"/><g class="legendlines"/><g class="legendsymbols"><g class="legendpoints"><path class="legendpie" d="M6,6H-6V-6H6Z" transform="translate(20,0)" style="fill: rgb(255, 187, 120); fill-opacity: 1; stroke-width: 0; stroke: rgb(68, 68, 68); stroke-opacity: 1;"/></g></g></g><rect class="legendtoggle" x="0" y="-9.5" width="166.046875" height="19" style="fill: rgb(0, 0, 0); fill-opacity: 0;"/></g><g class="traces" transform="translate(0,52.5)" style="opacity: 1;"><text class="legendtext" text-anchor="start" x="40" y="4.680000000000001" style="font-family: 'Open Sans', verdana, arial, sans-serif; font-size: 12px; fill: rgb(42, 63, 95); fill-opacity: 1; white-space: pre;">Sour Ale</text><g class="layers" style="opacity: 1;"><g class="legendfill"/><g class="legendlines"/><g class="legendsymbols"><g class="legendpoints"><path class="legendpie" d="M6,6H-6V-6H6Z" transform="translate(20,0)" style="fill: rgb(196, 156, 148); fill-opacity: 1; stroke-width: 0; stroke: rgb(68, 68, 68); stroke-opacity: 1;"/></g></g></g><rect class="legendtoggle" x="0" y="-9.5" width="166.046875" height="19" style="fill: rgb(0, 0, 0); fill-opacity: 0;"/></g><g class="traces" transform="translate(0,71.5)" style="opacity: 1;"><text class="legendtext" text-anchor="start" x="40" y="4.680000000000001" style="font-family: 'Open Sans', verdana, arial, sans-serif; font-size: 12px; fill: rgb(42, 63, 95); fill-opacity: 1; white-space: pre;">Specialty &amp; Seasonal</text><g class="layers" style="opacity: 1;"><g class="legendfill"/><g class="legendlines"/><g class="legendsymbols"><g class="legendpoints"><path class="legendpie" d="M6,6H-6V-6H6Z" transform="translate(20,0)" style="fill: rgb(227, 119, 194); fill-opacity: 1; stroke-width: 0; stroke: rgb(68, 68, 68); stroke-opacity: 1;"/></g></g></g><rect class="legendtoggle" x="0" y="-9.5" width="166.046875" height="19" style="fill: rgb(0, 0, 0); fill-opacity: 0;"/></g><g class="traces" transform="translate(0,90.5)" style="opacity: 1;"><text class="legendtext" text-anchor="start" x="40" y="4.680000000000001" style="font-family: 'Open Sans', verdana, arial, sans-serif; font-size: 12px; fill: rgb(42, 63, 95); fill-opacity: 1; white-space: pre;">Saison &amp; Farmhouse</text><g class="layers" style="opacity: 1;"><g class="legendfill"/><g class="legendlines"/><g class="legendsymbols"><g class="legendpoints"><path class="legendpie" d="M6,6H-6V-6H6Z" transform="translate(20,0)" style="fill: rgb(140, 86, 75); fill-opacity: 1; stroke-width: 0; stroke: rgb(68, 68, 68); stroke-opacity: 1;"/></g></g></g><rect class="legendtoggle" x="0" y="-9.5" width="166.046875" height="19" style="fill: rgb(0, 0, 0); fill-opacity: 0;"/></g><g class="traces" transform="translate(0,109.5)" style="opacity: 1;"><text class="legendtext" text-anchor="start" x="40" y="4.680000000000001" style="font-family: 'Open Sans', verdana, arial, sans-serif; font-size: 12px; fill: rgb(42, 63, 95); fill-opacity: 1; white-space: pre;">Pale Ale</text><g class="layers" style="opacity: 1;"><g class="legendfill"/><g class="legendlines"/><g class="legendsymbols"><g class="legendpoints"><path class="legendpie" d="M6,6H-6V-6H6Z" transform="translate(20,0)" style="fill: rgb(255, 152, 150); fill-opacity: 1; stroke-width: 0; stroke: rgb(68, 68, 68); stroke-opacity: 1;"/></g></g></g><rect class="legendtoggle" x="0" y="-9.5" width="166.046875" height="19" style="fill: rgb(0, 0, 0); fill-opacity: 0;"/></g><g class="traces" transform="translate(0,128.5)" style="opacity: 1;"><text class="legendtext" text-anchor="start" x="40" y="4.680000000000001" style="font-family: 'Open Sans', verdana, arial, sans-serif; font-size: 12px; fill: rgb(42, 63, 95); fill-opacity: 1; white-space: pre;">Stout</text><g class="layers" style="opacity: 1;"><g class="legendfill"/><g class="legendlines"/><g class="legendsymbols"><g class="legendpoints"><path class="legendpie" d="M6,6H-6V-6H6Z" transform="translate(20,0)" style="fill: rgb(247, 182, 210); fill-opacity: 1; stroke-width: 0; stroke: rgb(68, 68, 68); stroke-opacity: 1;"/></g></g></g><rect class="legendtoggle" x="0" y="-9.5" width="166.046875" height="19" style="fill: rgb(0, 0, 0); fill-opacity: 0;"/></g><g class="traces" transform="translate(0,147.5)" style="opacity: 1;"><text class="legendtext" text-anchor="start" x="40" y="4.680000000000001" style="font-family: 'Open Sans', verdana, arial, sans-serif; font-size: 12px; fill: rgb(42, 63, 95); fill-opacity: 1; white-space: pre;">Lager</text><g class="layers" style="opacity: 1;"><g class="legendfill"/><g class="legendlines"/><g class="legendsymbols"><g class="legendpoints"><path class="legendpie" d="M6,6H-6V-6H6Z" transform="translate(20,0)" style="fill: rgb(44, 160, 44); fill-opacity: 1; stroke-width: 0; stroke: rgb(68, 68, 68); stroke-opacity: 1;"/></g></g></g><rect class="legendtoggle" x="0" y="-9.5" width="166.046875" height="19" style="fill: rgb(0, 0, 0); fill-opacity: 0;"/></g><g class="traces" transform="translate(0,166.5)" style="opacity: 1;"><text class="legendtext" text-anchor="start" x="40" y="4.680000000000001" style="font-family: 'Open Sans', verdana, arial, sans-serif; font-size: 12px; fill: rgb(42, 63, 95); fill-opacity: 1; white-space: pre;">Hybrid Styles</text><g class="layers" style="opacity: 1;"><g class="legendfill"/><g class="legendlines"/><g class="legendsymbols"><g class="legendpoints"><path class="legendpie" d="M6,6H-6V-6H6Z" transform="translate(20,0)" style="fill: rgb(255, 127, 14); fill-opacity: 1; stroke-width: 0; stroke: rgb(68, 68, 68); stroke-opacity: 1;"/></g></g></g><rect class="legendtoggle" x="0" y="-9.5" width="166.046875" height="19" style="fill: rgb(0, 0, 0); fill-opacity: 0;"/></g><g class="traces" transform="translate(0,185.5)" style="opacity: 1;"><text class="legendtext" text-anchor="start" x="40" y="4.680000000000001" style="font-family: 'Open Sans', verdana, arial, sans-serif; font-size: 12px; fill: rgb(42, 63, 95); fill-opacity: 1; white-space: pre;">Strong Ale</text><g class="layers" style="opacity: 1;"><g class="legendfill"/><g class="legendlines"/><g class="legendsymbols"><g class="legendpoints"><path class="legendpie" d="M6,6H-6V-6H6Z" transform="translate(20,0)" style="fill: rgb(127, 127, 127); fill-opacity: 1; stroke-width: 0; stroke: rgb(68, 68, 68); stroke-opacity: 1;"/></g></g></g><rect class="legendtoggle" x="0" y="-9.5" width="166.046875" height="19" style="fill: rgb(0, 0, 0); fill-opacity: 0;"/></g><g class="traces" transform="translate(0,204.5)" style="opacity: 1;"><text class="legendtext" text-anchor="start" x="40" y="4.680000000000001" style="font-family: 'Open Sans', verdana, arial, sans-serif; font-size: 12px; fill: rgb(42, 63, 95); fill-opacity: 1; white-space: pre;">Wheat Beer</text><g class="layers" style="opacity: 1;"><g class="legendfill"/><g class="legendlines"/><g class="legendsymbols"><g class="legendpoints"><path class="legendpie" d="M6,6H-6V-6H6Z" transform="translate(20,0)" style="fill: rgb(188, 189, 34); fill-opacity: 1; stroke-width: 0; stroke: rgb(68, 68, 68); stroke-opacity: 1;"/></g></g></g><rect class="legendtoggle" x="0" y="-9.5" width="166.046875" height="19" style="fill: rgb(0, 0, 0); fill-opacity: 0;"/></g><g class="traces" transform="translate(0,223.5)" style="opacity: 1;"><text class="legendtext" text-anchor="start" x="40" y="4.680000000000001" style="font-family: 'Open Sans', verdana, arial, sans-serif; font-size: 12px; fill: rgb(42, 63, 95); fill-opacity: 1; white-space: pre;">Strong Lager</text><g class="layers" style="opacity: 1;"><g class="legendfill"/><g class="legendlines"/><g class="legendsymbols"><g class="legendpoints"><path class="legendpie" d="M6,6H-6V-6H6Z" transform="translate(20,0)" style="fill: rgb(199, 199, 199); fill-opacity: 1; stroke-width: 0; stroke: rgb(68, 68, 68); stroke-opacity: 1;"/></g></g></g><rect class="legendtoggle" x="0" y="-9.5" width="166.046875" height="19" style="fill: rgb(0, 0, 0); fill-opacity: 0;"/></g><g class="traces" transform="translate(0,242.5)" style="opacity: 1;"><text class="legendtext" text-anchor="start" x="40" y="4.680000000000001" style="font-family: 'Open Sans', verdana, arial, sans-serif; font-size: 12px; fill: rgb(42, 63, 95); fill-opacity: 1; white-space: pre;">Porter</text><g class="layers" style="opacity: 1;"><g class="legendfill"/><g class="legendlines"/><g class="legendsymbols"><g class="legendpoints"><path class="legendpie" d="M6,6H-6V-6H6Z" transform="translate(20,0)" style="fill: rgb(197, 176, 213); fill-opacity: 1; stroke-width: 0; stroke: rgb(68, 68, 68); stroke-opacity: 1;"/></g></g></g><rect class="legendtoggle" x="0" y="-9.5" width="166.046875" height="19" style="fill: rgb(0, 0, 0); fill-opacity: 0;"/></g><g class="traces" transform="translate(0,261.5)" style="opacity: 1;"><text class="legendtext" text-anchor="start" x="40" y="4.680000000000001" style="font-family: 'Open Sans', verdana, arial, sans-serif; font-size: 12px; fill: rgb(42, 63, 95); fill-opacity: 1; white-space: pre;">Pilsner</text><g class="layers" style="opacity: 1;"><g class="legendfill"/><g class="legendlines"/><g class="legendsymbols"><g class="legendpoints"><path class="legendpie" d="M6,6H-6V-6H6Z" transform="translate(20,0)" style="fill: rgb(148, 103, 189); fill-opacity: 1; stroke-width: 0; stroke: rgb(68, 68, 68); stroke-opacity: 1;"/></g></g></g><rect class="legendtoggle" x="0" y="-9.5" width="166.046875" height="19" style="fill: rgb(0, 0, 0); fill-opacity: 0;"/></g><g class="traces" transform="translate(0,280.5)" style="opacity: 1;"><text class="legendtext" text-anchor="start" x="40" y="4.680000000000001" style="font-family: 'Open Sans', verdana, arial, sans-serif; font-size: 12px; fill: rgb(42, 63, 95); fill-opacity: 1; white-space: pre;">Dark Lager</text><g class="layers" style="opacity: 1;"><g class="legendfill"/><g class="legendlines"/><g class="legendsymbols"><g class="legendpoints"><path class="legendpie" d="M6,6H-6V-6H6Z" transform="translate(20,0)" style="fill: rgb(174, 199, 232); fill-opacity: 1; stroke-width: 0; stroke: rgb(68, 68, 68); stroke-opacity: 1;"/></g></g></g><rect class="legendtoggle" x="0" y="-9.5" width="166.046875" height="19" style="fill: rgb(0, 0, 0); fill-opacity: 0;"/></g><g class="traces" transform="translate(0,299.5)" style="opacity: 1;"><text class="legendtext" text-anchor="start" x="40" y="4.680000000000001" style="font-family: 'Open Sans', verdana, arial, sans-serif; font-size: 12px; fill: rgb(42, 63, 95); fill-opacity: 1; white-space: pre;">Other Ales</text><g class="layers" style="opacity: 1;"><g class="legendfill"/><g class="legendlines"/><g class="legendsymbols"><g class="legendpoints"><path class="legendpie" d="M6,6H-6V-6H6Z" transform="translate(20,0)" style="fill: rgb(214, 39, 40); fill-opacity: 1; stroke-width: 0; stroke: rgb(68, 68, 68); stroke-opacity: 1;"/></g></g></g><rect class="legendtoggle" x="0" y="-9.5" width="166.046875" height="19" style="fill: rgb(0, 0, 0); fill-opacity: 0;"/></g><g class="traces" transform="translate(0,318.5)" style="opacity: 1;"><text class="legendtext" text-anchor="start" x="40" y="4.680000000000001" style="font-family: 'Open Sans', verdana, arial, sans-serif; font-size: 12px; fill: rgb(42, 63, 95); fill-opacity: 1; white-space: pre;">Low Alcohol</text><g class="layers" style="opacity: 1;"><g class="legendfill"/><g class="legendlines"/><g class="legendsymbols"><g class="legendpoints"><path class="legendpie" d="M6,6H-6V-6H6Z" transform="translate(20,0)" style="fill: rgb(152, 223, 138); fill-opacity: 1; stroke-width: 0; stroke: rgb(68, 68, 68); stroke-opacity: 1;"/></g></g></g><rect class="legendtoggle" x="0" y="-9.5" width="166.046875" height="19" style="fill: rgb(0, 0, 0); fill-opacity: 0;"/></g></g></g><rect class="scrollbar" rx="20" ry="3" width="0" height="0" style="fill: rgb(128, 139, 164); fill-opacity: 1;" x="0" y="0"/></g><g class="g-gtitle"><text class="gtitle" x="187" y="0" text-anchor="start" dy="0.7em" style="opacity: 1; font-family: Arial; font-size: 18px; fill: rgb(0, 0, 0); fill-opacity: 1; white-space: pre;">Beer Styles in Belgium and Canada (Based on Rating Counts)</text></g><g class="annotation" data-index="0" style="opacity: 1;"><g class="annotation-text-g" transform="rotate(0,226.3,39.249999999999986)"><g class="cursor-pointer" transform="translate(195,29)"><rect class="bg" x="0.5" y="0.5" width="62" height="20" style="stroke-width: 1px; stroke: rgb(0, 0, 0); stroke-opacity: 0; fill: rgb(0, 0, 0); fill-opacity: 0;"/><text class="annotation-text" text-anchor="middle" x="31.59375" y="15.5" style="font-family: Arial; font-size: 15px; fill: rgb(0, 0, 0); fill-opacity: 1; white-space: pre;"><tspan style="font-weight:bold">Belgium</tspan></text></g></g></g><g class="annotation" data-index="1" style="opacity: 1;"><g class="annotation-text-g" transform="rotate(0,675.2,39.249999999999986)"><g class="cursor-pointer" transform="translate(646,29)"><rect class="bg" x="0.5" y="0.5" width="57" height="20" style="stroke-width: 1px; stroke: rgb(0, 0, 0); stroke-opacity: 0; fill: rgb(0, 0, 0); fill-opacity: 0;"/><text class="annotation-text" text-anchor="middle" x="29.09375" y="15.5" style="font-family: Arial; font-size: 15px; fill: rgb(0, 0, 0); fill-opacity: 1; white-space: pre;"><tspan style="font-weight:bold">Canada</tspan></text></g></g></g></g></svg>