<svg class="main-svg" xmlns="http://www.w3.org/2000/svg" xmlns:xlink="http://www.w3.org/1999/xlink" width="1100" height="500" style="" viewBox="0 0 1100 500"><rect x="0" y="0" width="1100" height="500" style="fill: rgb(255, 255, 255); fill-opacity: 1;"/><defs id="defs-ce8502"><g class="clips"/><g class="gradients"/><g class="patterns"/></defs><g class="bglayer"/><g class="layer-below"><g class="imagelayer"/><g class="shapelayer"/></g><g class="cartesianlayer"/><g class="polarlayer"/><g class="smithlayer"/><g class="ternarylayer"/><g class="geolayer"/><g class="funnelarealayer"/><g class="pielayer"><g class="trace" stroke-linejoin="round" style="opacity: 1;"><g class="slice"><path class="surface" d="M289.483688082325,216.81680249704954a48,48 0 0 0 -20.957372292851336,-4.816802497049534l0,-112a160,160 0 0 1 69.85790764283779,16.056008323498446Z" style="pointer-events: none; fill: rgb(227, 119, 194); fill-opacity: 1; stroke-width: 0; stroke: rgb(68, 68, 68); stroke-opacity: 1;"/><g class="slicetext"><text data-notex="1" class="slicetext" transform="translate(294.2869474225662,134.281224847439)rotate(-77.05604627100558)" text-anchor="middle" x="0" y="0" style="font-family: 'Open Sans', verdana, arial, sans-serif; font-size: 12px; fill: rgb(68, 68, 68); fill-opacity: 1; white-space: pre;"><tspan class="line" dy="0em" x="0" y="0">Stout</tspan><tspan class="line" dy="1.3em" x="0" y="0">7.19%</tspan></text></g></g><g class="slice"><path class="surface" d="M268.52631578947364,212a48,48 0 0 0 -20.78260584323588,4.732422134296706l-48.49274696755039,-100.95768168664101a160,160 0 0 1 69.27535281078627,-15.774740447655688Z" style="pointer-events: none; fill: rgb(140, 86, 75); fill-opacity: 1; stroke-width: 0; stroke: rgb(68, 68, 68); stroke-opacity: 1;"/><g class="slicetext"><text data-notex="1" class="slicetext" transform="translate(243.94851081267697,138.30749574458264)rotate(77.1718736453704)" text-anchor="middle" x="0" y="0" style="font-family: 'Open Sans', verdana, arial, sans-serif; font-size: 12px; fill: rgb(255, 255, 255); fill-opacity: 1; white-space: pre;"><tspan class="line" dy="0em" x="0" y="0">Sour Ale</tspan><tspan class="line" dy="1.3em" x="0" y="0">7.13%</tspan></text></g></g><g class="slice"><path class="surface" d="M247.74370994623777,216.7324221342967a48,48 0 0 0 -16.60675809623429,13.16715487528923l-87.24184919209706,-70.23432031096614a160,160 0 0 1 55.35586032078098,-43.8905162509641Z" style="pointer-events: none; fill: rgb(148, 103, 189); fill-opacity: 1; stroke-width: 0; stroke: rgb(68, 68, 68); stroke-opacity: 1;"/><g class="slicetext"><text data-notex="1" class="slicetext" transform="translate(191.0203637460273,157.3307679453749)rotate(51.58982897880776)" text-anchor="middle" x="0" y="0" style="font-family: 'Open Sans', verdana, arial, sans-serif; font-size: 12px; fill: rgb(255, 255, 255); fill-opacity: 1; white-space: pre;"><tspan class="line" dy="0em" x="0" y="0">Porter</tspan><tspan class="line" dy="1.3em" x="0" y="0">7.09%</tspan></text></g></g><g class="slice"><path class="surface" d="M231.13695185000347,229.89957700958593a48,48 0 0 0 -9.18054145143239,18.470981392367126l-108.66311257877264,-27.135363728776184a160,160 0 0 1 30.601804838107967,-61.56993797455709Z" style="pointer-events: none; fill: rgb(255, 187, 120); fill-opacity: 1; stroke-width: 0; stroke: rgb(68, 68, 68); stroke-opacity: 1;"/><g class="slicetext"><text data-notex="1" class="slicetext" transform="translate(172.0565511647796,209.24670837873603)scale(0.8224099784555947)rotate(26.42852980185978)" text-anchor="middle" x="0" y="0" style="font-family: 'Open Sans', verdana, arial, sans-serif; font-size: 12px; fill: rgb(68, 68, 68); fill-opacity: 1; white-space: pre;"><tspan class="line" dy="0em" x="0" y="0">India Pale Ale (IPA)</tspan><tspan class="line" dy="1.3em" x="0" y="0">6.89%</tspan></text></g></g><g class="slice"><path class="surface" d="M221.95641039857108,248.37055840195308a48,48 0 0 0 -0.672059751308501,20.12630746153534l-110.23125199849248,19.826020348139604a160,160 0 0 1 2.240199171028337,-67.08769153845114Z" style="pointer-events: none; fill: rgb(247, 182, 210); fill-opacity: 1; stroke-width: 0; stroke: rgb(68, 68, 68); stroke-opacity: 1;"/><g class="slicetext"><text data-notex="1" class="slicetext" transform="translate(143.61983682928897,256.9453125)" text-anchor="middle" x="0" y="0" style="font-family: 'Open Sans', verdana, arial, sans-serif; font-size: 12px; fill: rgb(68, 68, 68); fill-opacity: 1; white-space: pre;"><tspan class="line" dy="0em" x="0" y="0">Strong Ale</tspan><tspan class="line" dy="1.3em" x="0" y="0">6.73%</tspan></text></g></g><g class="slice"><path class="surface" d="M221.28435064726258,268.4968658634884a48,48 0 0 0 7.616177936698835,18.59182159721119l-92.4601701461952,63.20693740829905a160,160 0 0 1 -25.38725978899612,-61.972738657370634Z" style="pointer-events: none; fill: rgb(31, 119, 180); fill-opacity: 1; stroke-width: 0; stroke: rgb(68, 68, 68); stroke-opacity: 1;"/><g class="slicetext"><text data-notex="1" class="slicetext" transform="translate(156.1209306147177,302.7460343862727)rotate(-22.27656026686907)" text-anchor="middle" x="0" y="0" style="font-family: 'Open Sans', verdana, arial, sans-serif; font-size: 12px; fill: rgb(255, 255, 255); fill-opacity: 1; white-space: pre;"><tspan class="line" dy="0em" x="0" y="0">Belgian Ale</tspan><tspan class="line" dy="1.3em" x="0" y="0">6.71%</tspan></text></g></g><g class="slice"><path class="surface" d="M228.9005285839614,287.0886874606996a48,48 0 0 0 14.216407377066792,13.634320983345768l-59.28855293303935,95.02035303610585a160,160 0 0 1 -47.38802459022264,-45.447736611152564Z" style="pointer-events: none; fill: rgb(197, 176, 213); fill-opacity: 1; stroke-width: 0; stroke: rgb(68, 68, 68); stroke-opacity: 1;"/><g class="slicetext"><text data-notex="1" class="slicetext" transform="translate(191.3139089038532,337.0443230390645)scale(0.7850366609105104)rotate(-46.19732016985904)" text-anchor="middle" x="0" y="0" style="font-family: 'Open Sans', verdana, arial, sans-serif; font-size: 12px; fill: rgb(68, 68, 68); fill-opacity: 1; white-space: pre;"><tspan class="line" dy="0em" x="0" y="0">Saison &amp; Farmhouse</tspan><tspan class="line" dy="1.3em" x="0" y="0">6.58%</tspan></text></g></g><g class="slice"><path class="surface" d="M243.11693596102822,300.7230084440454a48,48 0 0 0 18.194235784976556,6.731619322190417l-16.83533610142739,110.72746478788348a160,160 0 0 1 -60.64745261658852,-22.438731073968057Z" style="pointer-events: none; fill: rgb(255, 127, 14); fill-opacity: 1; stroke-width: 0; stroke: rgb(68, 68, 68); stroke-opacity: 1;"/><g class="slicetext"><text data-notex="1" class="slicetext" transform="translate(224.8958005655715,369.12915102694564)scale(0.9991263870598728)rotate(-69.69621300573317)" text-anchor="middle" x="0" y="0" style="font-family: 'Open Sans', verdana, arial, sans-serif; font-size: 12px; fill: rgb(68, 68, 68); fill-opacity: 1; white-space: pre;"><tspan class="line" dy="0em" x="0" y="0">Hybrid Styles</tspan><tspan class="line" dy="1.3em" x="0" y="0">6.48%</tspan></text></g></g><g class="slice"><path class="surface" d="M261.3111717460048,307.4546277662358a48,48 0 0 0 19.06141623801458,-0.939406224328303l27.641301787273296,108.53551693111744a160,160 0 0 1 -63.538054126715274,3.1313540810943437Z" style="pointer-events: none; fill: rgb(214, 39, 40); fill-opacity: 1; stroke-width: 0; stroke: rgb(68, 68, 68); stroke-opacity: 1;"/><g class="slicetext"><text data-notex="1" class="slicetext" transform="translate(277.8639160638752,387.41085178909844)rotate(87.17856751960971)" text-anchor="middle" x="0" y="0" style="font-family: 'Open Sans', verdana, arial, sans-serif; font-size: 12px; fill: rgb(255, 255, 255); fill-opacity: 1; white-space: pre;"><tspan class="line" dy="0em" x="0" y="0">Pale Ale</tspan><tspan class="line" dy="1.3em" x="0" y="0">6.37%</tspan></text></g></g><g class="slice"><path class="surface" d="M280.37258798401933,306.51522154190747a48,48 0 0 0 16.560133249287336,-7.823153494818388l66.28161270227709,90.28149210987453a160,160 0 0 1 -55.20044416429113,26.077178316061293Z" style="pointer-events: none; fill: rgb(199, 199, 199); fill-opacity: 1; stroke-width: 0; stroke: rgb(68, 68, 68); stroke-opacity: 1;"/><g class="slicetext"><text data-notex="1" class="slicetext" transform="translate(323.0785104922866,368.32523854364)rotate(64.71353513554573)" text-anchor="middle" x="0" y="0" style="font-family: 'Open Sans', verdana, arial, sans-serif; font-size: 12px; fill: rgb(68, 68, 68); fill-opacity: 1; white-space: pre;"><tspan class="line" dy="0em" x="0" y="0">Wheat Beer</tspan><tspan class="line" dy="1.3em" x="0" y="0">6.11%</tspan></text></g></g><g class="slice"><path class="surface" d="M296.93272123330667,298.6920680470891a48,48 0 0 0 12.393738524711406,-13.406731344841148l95.2003359266037,58.999118971911855a160,160 0 0 1 -41.31246174903802,44.68910448280383Z" style="pointer-events: none; fill: rgb(127, 127, 127); fill-opacity: 1; stroke-width: 0; stroke: rgb(68, 68, 68); stroke-opacity: 1;"/><g class="slicetext"><text data-notex="1" class="slicetext" transform="translate(358.14180605985604,338.75765684026265)scale(0.9823657258057975)rotate(42.751575178180815)" text-anchor="middle" x="0" y="0" style="font-family: 'Open Sans', verdana, arial, sans-serif; font-size: 12px; fill: rgb(255, 255, 255); fill-opacity: 1; white-space: pre;"><tspan class="line" dy="0em" x="0" y="0">Strong Lager</tspan><tspan class="line" dy="1.3em" x="0" y="0">6.09%</tspan></text></g></g><g class="slice"><path class="surface" d="M309.3264597580181,285.28533670224795a48,48 0 0 0 6.409093196125781,-16.60847515385848l110.15488671756385,20.246010279575405a160,160 0 0 1 -21.363643987085936,55.36158384619493Z" style="pointer-events: none; fill: rgb(174, 199, 232); fill-opacity: 1; stroke-width: 0; stroke: rgb(68, 68, 68); stroke-opacity: 1;"/><g class="slicetext"><text data-notex="1" class="slicetext" transform="translate(384.31979961361236,301.4096477650897)rotate(21.10124911721516)" text-anchor="middle" x="0" y="0" style="font-family: 'Open Sans', verdana, arial, sans-serif; font-size: 12px; fill: rgb(68, 68, 68); fill-opacity: 1; white-space: pre;"><tspan class="line" dy="0em" x="0" y="0">Dark Lager</tspan><tspan class="line" dy="1.3em" x="0" y="0">5.94%</tspan></text></g></g><g class="slice"><path class="surface" d="M315.7355529541439,268.67686154838947a48,48 0 0 0 0.012717808764080019,-17.284240271725785l110.18456160468004,-20.083883687784766a160,160 0 0 1 -0.04239269588026673,57.614134239085956Z" style="pointer-events: none; fill: rgb(196, 156, 148); fill-opacity: 1; stroke-width: 0; stroke: rgb(68, 68, 68); stroke-opacity: 1;"/><g class="slicetext"><text data-notex="1" class="slicetext" transform="translate(379.8254338474903,257.82951166563316)scale(0.7373526859281093)rotate(0.042158441671574565)" text-anchor="middle" x="0" y="0" style="font-family: 'Open Sans', verdana, arial, sans-serif; font-size: 12px; fill: rgb(68, 68, 68); fill-opacity: 1; white-space: pre;"><tspan class="line" dy="0em" x="0" y="0">Specialty &amp; Seasonal</tspan><tspan class="line" dy="1.3em" x="0" y="0">5.76%</tspan></text></g></g><g class="slice"><path class="surface" d="M315.74827076290796,251.39262127666368a48,48 0 0 0 -5.450995667318932,-15.039755535318648l97.4655717142692,-55.176646603528276a160,160 0 0 1 18.169985557729774,50.13251845106216Z" style="pointer-events: none; fill: rgb(255, 152, 150); fill-opacity: 1; stroke-width: 0; stroke: rgb(68, 68, 68); stroke-opacity: 1;"/><g class="slicetext"><text data-notex="1" class="slicetext" transform="translate(393.67894948577714,211.39065650765855)rotate(-19.92249724504535)" text-anchor="middle" x="0" y="0" style="font-family: 'Open Sans', verdana, arial, sans-serif; font-size: 12px; fill: rgb(68, 68, 68); fill-opacity: 1; white-space: pre;"><tspan class="line" dy="0em" x="0" y="0">Pilsner</tspan><tspan class="line" dy="1.3em" x="0" y="0">5.33%</tspan></text></g></g><g class="slice"><path class="surface" d="M310.29727509558904,236.35286574134503a48,48 0 0 0 -9.093297992033776,-11.512081475518833l76.24787639952372,-82.03817004640555a160,160 0 0 1 30.310993306779253,38.37360491839611Z" style="pointer-events: none; fill: rgb(44, 160, 44); fill-opacity: 1; stroke-width: 0; stroke: rgb(68, 68, 68); stroke-opacity: 1;"/><g class="slicetext"><text data-notex="1" class="slicetext" transform="translate(373.21260932392454,173.41646782781154)rotate(-38.30491588610511)" text-anchor="middle" x="0" y="0" style="font-family: 'Open Sans', verdana, arial, sans-serif; font-size: 12px; fill: rgb(255, 255, 255); fill-opacity: 1; white-space: pre;"><tspan class="line" dy="0em" x="0" y="0">Lager</tspan><tspan class="line" dy="1.3em" x="0" y="0">4.88%</tspan></text></g></g><g class="slice"><path class="surface" d="M301.20397710355525,224.8407842658262a48,48 0 0 0 -11.720289021230307,-8.023981768776673l48.90053534998634,-100.76079417355112a160,160 0 0 1 39.06763007076769,26.746605895922244Z" style="pointer-events: none; fill: rgb(152, 223, 138); fill-opacity: 1; stroke-width: 0; stroke: rgb(68, 68, 68); stroke-opacity: 1;"/><g class="slicetext"><text data-notex="1" class="slicetext" transform="translate(337.6607922249048,154.190971555651)scale(0.8927208385630969)rotate(-55.603553392435856)" text-anchor="middle" x="0" y="0" style="font-family: 'Open Sans', verdana, arial, sans-serif; font-size: 12px; fill: rgb(68, 68, 68); fill-opacity: 1; white-space: pre;"><tspan class="line" dy="0em" x="0" y="0">Low Alcohol</tspan><tspan class="line" dy="1.3em" x="0" y="0">4.73%</tspan></text></g></g></g><g class="trace" stroke-linejoin="round" style="opacity: 1;"><g class="slice"><path class="surface" d="M717.4567836683881,216.62467700165112a48,48 0 0 0 -20.55678366838807,-4.6246770016511105l0,-112a160,160 0 0 1 68.52261222796024,15.415590005503702Z" style="pointer-events: none; fill: rgb(227, 119, 194); fill-opacity: 1; stroke-width: 0; stroke: rgb(68, 68, 68); stroke-opacity: 1;"/><g class="slicetext"><text data-notex="1" class="slicetext" transform="translate(722.1732870360056,133.74220815893577)rotate(-77.3212064598597)" text-anchor="middle" x="0" y="0" style="font-family: 'Open Sans', verdana, arial, sans-serif; font-size: 12px; fill: rgb(68, 68, 68); fill-opacity: 1; white-space: pre;"><tspan class="line" dy="0em" x="0" y="0">Stout</tspan><tspan class="line" dy="1.3em" x="0" y="0">7.04%</tspan></text></g></g><g class="slice"><path class="surface" d="M696.9,212a48,48 0 0 0 -20.326608138395624,4.516336382635506l-47.42875232292312,-101.46188177385048a160,160 0 0 1 67.75536046131874,-15.054454608785022Z" style="pointer-events: none; fill: rgb(140, 86, 75); fill-opacity: 1; stroke-width: 0; stroke: rgb(68, 68, 68); stroke-opacity: 1;"/><g class="slicetext"><text data-notex="1" class="slicetext" transform="translate(672.8524999361872,137.68631658433796)rotate(77.47303940264237)" text-anchor="middle" x="0" y="0" style="font-family: 'Open Sans', verdana, arial, sans-serif; font-size: 12px; fill: rgb(255, 255, 255); fill-opacity: 1; white-space: pre;"><tspan class="line" dy="0em" x="0" y="0">Sour Ale</tspan><tspan class="line" dy="1.3em" x="0" y="0">6.96%</tspan></text></g></g><g class="slice"><path class="surface" d="M676.5733918616044,216.5163363826355a48,48 0 0 0 -16.48545868002189,12.679901889998067l-85.89482257630752,-71.87544403052165a160,160 0 0 1 54.951528933406294,-42.26633963332689Z" style="pointer-events: none; fill: rgb(148, 103, 189); fill-opacity: 1; stroke-width: 0; stroke: rgb(68, 68, 68); stroke-opacity: 1;"/><g class="slicetext"><text data-notex="1" class="slicetext" transform="translate(620.672901388678,155.8848730892034)rotate(52.434072328402294)" text-anchor="middle" x="0" y="0" style="font-family: 'Open Sans', verdana, arial, sans-serif; font-size: 12px; fill: rgb(255, 255, 255); fill-opacity: 1; white-space: pre;"><tspan class="line" dy="0em" x="0" y="0">Porter</tspan><tspan class="line" dy="1.3em" x="0" y="0">6.95%</tspan></text></g></g><g class="slice"><path class="surface" d="M660.0879331815825,229.19623827263356a48,48 0 0 0 -9.417334281523827,17.88701004821958l-107.86860256652979,-30.139087251342637a160,160 0 0 1 31.39111427174609,-59.6233668273986Z" style="pointer-events: none; fill: rgb(31, 119, 180); fill-opacity: 1; stroke-width: 0; stroke: rgb(68, 68, 68); stroke-opacity: 1;"/><g class="slicetext"><text data-notex="1" class="slicetext" transform="translate(592.0624293673532,201.35186225971415)rotate(27.766362299303637)" text-anchor="middle" x="0" y="0" style="font-family: 'Open Sans', verdana, arial, sans-serif; font-size: 12px; fill: rgb(255, 255, 255); fill-opacity: 1; white-space: pre;"><tspan class="line" dy="0em" x="0" y="0">Belgian Ale</tspan><tspan class="line" dy="1.3em" x="0" y="0">6.75%</tspan></text></g></g><g class="slice"><path class="surface" d="M650.6705989000586,247.08324832085316a48,48 0 0 0 -1.2185093675035858,20.175938429281477l-110.71179109070482,16.938102416980808a160,160 0 0 1 4.0616978916786195,-67.25312809760493Z" style="pointer-events: none; fill: rgb(255, 187, 120); fill-opacity: 1; stroke-width: 0; stroke: rgb(68, 68, 68); stroke-opacity: 1;"/><g class="slicetext"><text data-notex="1" class="slicetext" transform="translate(587.872366390249,250.9181051845965)scale(0.8160303751283814)rotate(3.456133979734318)" text-anchor="middle" x="0" y="0" style="font-family: 'Open Sans', verdana, arial, sans-serif; font-size: 12px; fill: rgb(68, 68, 68); fill-opacity: 1; white-space: pre;"><tspan class="line" dy="0em" x="0" y="0">India Pale Ale (IPA)</tspan><tspan class="line" dy="1.3em" x="0" y="0">6.75%</tspan></text></g></g><g class="slice"><path class="surface" d="M649.4520895325551,267.25918675013463a48,48 0 0 0 7.132993920078394,18.792828599524444l-94.0681386105219,60.788035815871176a160,160 0 0 1 -23.776646400261313,-62.64276199841481Z" style="pointer-events: none; fill: rgb(197, 176, 213); fill-opacity: 1; stroke-width: 0; stroke: rgb(68, 68, 68); stroke-opacity: 1;"/><g class="slicetext"><text data-notex="1" class="slicetext" transform="translate(594.4602151559002,296.29724346985006)scale(0.79108632502616)rotate(-20.78472640542668)" text-anchor="middle" x="0" y="0" style="font-family: 'Open Sans', verdana, arial, sans-serif; font-size: 12px; fill: rgb(68, 68, 68); fill-opacity: 1; white-space: pre;"><tspan class="line" dy="0em" x="0" y="0">Saison &amp; Farmhouse</tspan><tspan class="line" dy="1.3em" x="0" y="0">6.71%</tspan></text></g></g><g class="slice"><path class="surface" d="M656.5850834526334,286.0520153496591a48,48 0 0 0 13.695974677791867,13.890843007551721l-62.11086436234088,93.20000283349185a160,160 0 0 1 -45.65324892597289,-46.302810025172406Z" style="pointer-events: none; fill: rgb(255, 127, 14); fill-opacity: 1; stroke-width: 0; stroke: rgb(68, 68, 68); stroke-opacity: 1;"/><g class="slicetext"><text data-notex="1" class="slicetext" transform="translate(611.1776641614176,340.2299901194365)rotate(-44.59527962650088)" text-anchor="middle" x="0" y="0" style="font-family: 'Open Sans', verdana, arial, sans-serif; font-size: 12px; fill: rgb(68, 68, 68); fill-opacity: 1; white-space: pre;"><tspan class="line" dy="0em" x="0" y="0">Hybrid Styles</tspan><tspan class="line" dy="1.3em" x="0" y="0">6.51%</tspan></text></g></g><g class="slice"><path class="surface" d="M670.2810581304253,299.9428583572108a48,48 0 0 0 18.032290430585984,7.282869980902884l-20.035520024306916,110.19336612226526a160,160 0 0 1 -60.10763476861995,-24.276233269676283Z" style="pointer-events: none; fill: rgb(247, 182, 210); fill-opacity: 1; stroke-width: 0; stroke: rgb(68, 68, 68); stroke-opacity: 1;"/><g class="slicetext"><text data-notex="1" class="slicetext" transform="translate(648.3613758952595,372.0240587416059)rotate(-68.00723414218805)" text-anchor="middle" x="0" y="0" style="font-family: 'Open Sans', verdana, arial, sans-serif; font-size: 12px; fill: rgb(68, 68, 68); fill-opacity: 1; white-space: pre;"><tspan class="line" dy="0em" x="0" y="0">Strong Ale</tspan><tspan class="line" dy="1.3em" x="0" y="0">6.49%</tspan></text></g></g><g class="slice"><path class="surface" d="M688.3133485610113,307.2257283381137a48,48 0 0 0 18.548946646999518,-0.2709343955518165l23.24535548535863,109.56118586597768a160,160 0 0 1 -61.82982215666507,0.9031146518393882Z" style="pointer-events: none; fill: rgb(174, 199, 232); fill-opacity: 1; stroke-width: 0; stroke: rgb(68, 68, 68); stroke-opacity: 1;"/><g class="slicetext"><text data-notex="1" class="slicetext" transform="translate(701.7370731534924,382.00493166849446)rotate(89.16317115673735)" text-anchor="middle" x="0" y="0" style="font-family: 'Open Sans', verdana, arial, sans-serif; font-size: 12px; fill: rgb(68, 68, 68); fill-opacity: 1; white-space: pre;"><tspan class="line" dy="0em" x="0" y="0">Dark Lager</tspan><tspan class="line" dy="1.3em" x="0" y="0">6.19%</tspan></text></g></g><g class="slice"><path class="surface" d="M706.8622952080108,306.9547939425619a48,48 0 0 0 16.91913418863247,-7.188115006632597l62.72333525883439,92.78891751716829a160,160 0 0 1 -56.397113962108236,23.96038335544199Z" style="pointer-events: none; fill: rgb(214, 39, 40); fill-opacity: 1; stroke-width: 0; stroke: rgb(68, 68, 68); stroke-opacity: 1;"/><g class="slicetext"><text data-notex="1" class="slicetext" transform="translate(749.9558251274324,377.06894191707613)rotate(66.98172808885101)" text-anchor="middle" x="0" y="0" style="font-family: 'Open Sans', verdana, arial, sans-serif; font-size: 12px; fill: rgb(255, 255, 255); fill-opacity: 1; white-space: pre;"><tspan class="line" dy="0em" x="0" y="0">Pale Ale</tspan><tspan class="line" dy="1.3em" x="0" y="0">6.13%</tspan></text></g></g><g class="slice"><path class="surface" d="M723.7814293966433,299.7666789359293a48,48 0 0 0 12.934263205874062,-12.95790010171448l92.9032827392072,62.553817279834504a160,160 0 0 1 -43.11421068624688,43.19300033904827Z" style="pointer-events: none; fill: rgb(199, 199, 199); fill-opacity: 1; stroke-width: 0; stroke: rgb(68, 68, 68); stroke-opacity: 1;"/><g class="slicetext"><text data-notex="1" class="slicetext" transform="translate(784.8765428388314,343.50001999086425)rotate(44.9476948302796)" text-anchor="middle" x="0" y="0" style="font-family: 'Open Sans', verdana, arial, sans-serif; font-size: 12px; fill: rgb(68, 68, 68); fill-opacity: 1; white-space: pre;"><tspan class="line" dy="0em" x="0" y="0">Wheat Beer</tspan><tspan class="line" dy="1.3em" x="0" y="0">6.11%</tspan></text></g></g><g class="slice"><path class="surface" d="M736.7156926025174,286.80877883421476a48,48 0 0 0 7.0730238624718025,-16.539978112326516l109.40700508497474,23.9605350177393a160,160 0 0 1 -23.576746208239342,55.133260374421724Z" style="pointer-events: none; fill: rgb(127, 127, 127); fill-opacity: 1; stroke-width: 0; stroke: rgb(68, 68, 68); stroke-opacity: 1;"/><g class="slicetext"><text data-notex="1" class="slicetext" transform="translate(808.0216624974037,304.2802741875508)scale(0.9749065029429843)rotate(23.153101790195933)" text-anchor="middle" x="0" y="0" style="font-family: 'Open Sans', verdana, arial, sans-serif; font-size: 12px; fill: rgb(255, 255, 255); fill-opacity: 1; white-space: pre;"><tspan class="line" dy="0em" x="0" y="0">Strong Lager</tspan><tspan class="line" dy="1.3em" x="0" y="0">6%</tspan></text></g></g><g class="slice"><path class="surface" d="M743.7887164649892,270.2688007218883a48,48 0 0 0 0.5465077562823041,-17.610428816371062l110.68218984963346,-17.130465553793176a160,160 0 0 1 -1.8216925209410135,58.70142938790354Z" style="pointer-events: none; fill: rgb(196, 156, 148); fill-opacity: 1; stroke-width: 0; stroke: rgb(68, 68, 68); stroke-opacity: 1;"/><g class="slicetext"><text data-notex="1" class="slicetext" transform="translate(807.8327036191353,261.17161256422565)scale(0.7430842524881256)rotate(1.7775002575249914)" text-anchor="middle" x="0" y="0" style="font-family: 'Open Sans', verdana, arial, sans-serif; font-size: 12px; fill: rgb(68, 68, 68); fill-opacity: 1; white-space: pre;"><tspan class="line" dy="0em" x="0" y="0">Specialty &amp; Seasonal</tspan><tspan class="line" dy="1.3em" x="0" y="0">5.88%</tspan></text></g></g><g class="slice"><path class="surface" d="M744.3352242212715,252.6583719055172a48,48 0 0 0 -5.806302296029792,-16.554665746657758l97.13415115889727,-55.758018962661275a160,160 0 0 1 19.354340986765976,55.182219155525864Z" style="pointer-events: none; fill: rgb(255, 152, 150); fill-opacity: 1; stroke-width: 0; stroke: rgb(68, 68, 68); stroke-opacity: 1;"/><g class="slicetext"><text data-notex="1" class="slicetext" transform="translate(820.8807558064151,213.27847171387168)rotate(-19.327559178347315)" text-anchor="middle" x="0" y="0" style="font-family: 'Open Sans', verdana, arial, sans-serif; font-size: 12px; fill: rgb(68, 68, 68); fill-opacity: 1; white-space: pre;"><tspan class="line" dy="0em" x="0" y="0">Pilsner</tspan><tspan class="line" dy="1.3em" x="0" y="0">5.85%</tspan></text></g></g><g class="slice"><path class="surface" d="M738.5289219252417,236.10370615885944a48,48 0 0 0 -10.116053373569704,-12.310599365057667l73.53002662056797,-84.4827508144625a160,160 0 0 1 33.720177911899015,41.03533121685889Z" style="pointer-events: none; fill: rgb(44, 160, 44); fill-opacity: 1; stroke-width: 0; stroke: rgb(68, 68, 68); stroke-opacity: 1;"/><g class="slicetext"><text data-notex="1" class="slicetext" transform="translate(798.722754587959,172.37492901734998)rotate(-39.41115086039332)" text-anchor="middle" x="0" y="0" style="font-family: 'Open Sans', verdana, arial, sans-serif; font-size: 12px; fill: rgb(255, 255, 255); fill-opacity: 1; white-space: pre;"><tspan class="line" dy="0em" x="0" y="0">Lager</tspan><tspan class="line" dy="1.3em" x="0" y="0">5.31%</tspan></text></g></g><g class="slice"><path class="surface" d="M728.412868551672,223.79310679380177a48,48 0 0 0 -10.95608488328379,-7.168429792150612l47.96582855957245,-101.20908699614726a160,160 0 0 1 36.5202829442793,23.894765973835376Z" style="pointer-events: none; fill: rgb(152, 223, 138); fill-opacity: 1; stroke-width: 0; stroke: rgb(68, 68, 68); stroke-opacity: 1;"/><g class="slicetext"><text data-notex="1" class="slicetext" transform="translate(764.8110108507614,151.4643529019862)scale(0.8499009818857257)rotate(-56.80377624910642)" text-anchor="middle" x="0" y="0" style="font-family: 'Open Sans', verdana, arial, sans-serif; font-size: 12px; fill: rgb(68, 68, 68); fill-opacity: 1; white-space: pre;"><tspan class="line" dy="0em" x="0" y="0">Low Alcohol</tspan><tspan class="line" dy="1.3em" x="0" y="0">4.35%</tspan></text></g></g></g></g><g class="iciclelayer"/><g class="treemaplayer"/><g class="sunburstlayer"/><g class="glimages"/><defs id="topdefs-ce8502"><g class="clips"/><clipPath id="legendce8502"><rect width="172" height="314" x="0" y="0"/></clipPath></defs><g class="layer-above"><g class="imagelayer"/><g class="shapelayer"/></g><g class="infolayer"><g class="legend" pointer-events="all" transform="translate(915.8000000000001,103)"><rect class="bg" shape-rendering="crispEdges" width="172" height="314" x="0" y="0" style="stroke: rgb(68, 68, 68); stroke-opacity: 1; fill: rgb(255, 255, 255); fill-opacity: 1; stroke-width: 0px;"/><g class="scrollbox" transform="" clip-path="url(#legendce8502)"><g class="groups"><g class="traces" transform="translate(0,14.5)" style="opacity: 1;"><text class="legendtext" text-anchor="start" x="40" y="4.680000000000001" style="font-family: 'Open Sans', verdana, arial, sans-serif; font-size: 12px; fill: rgb(42, 63, 95); fill-opacity: 1; white-space: pre;">Stout</text><g class="layers" style="opacity: 1;"><g class="legendfill"/><g class="legendlines"/><g class="legendsymbols"><g class="legendpoints"><path class="legendpie" d="M6,6H-6V-6H6Z" transform="translate(20,0)" style="fill: rgb(227, 119, 194); fill-opacity: 1; stroke-width: 0; stroke: rgb(68, 68, 68); stroke-opacity: 1;"/></g></g></g><rect class="legendtoggle" x="0" y="-9.5" width="166.046875" height="19" style="fill: rgb(0, 0, 0); fill-opacity: 0;"/></g><g class="traces" transform="translate(0,33.5)" style="opacity: 1;"><text class="legendtext" text-anchor="start" x="40" y="4.680000000000001" style="font-family: 'Open Sans', verdana, arial, sans-serif; font-size: 12px; fill: rgb(42, 63, 95); fill-opacity: 1; white-space: pre;">Sour Ale</text><g class="layers" style="opacity: 1;"><g class="legendfill"/><g class="legendlines"/><g class="legendsymbols"><g class="legendpoints"><path class="legendpie" d="M6,6H-6V-6H6Z" transform="translate(20,0)" style="fill: rgb(140, 86, 75); fill-opacity: 1; stroke-width: 0; stroke: rgb(68, 68, 68); stroke-opacity: 1;"/></g></g></g><rect class="legendtoggle" x="0" y="-9.5" width="166.046875" height="19" style="fill: rgb(0, 0, 0); fill-opacity: 0;"/></g><g class="traces" transform="translate(0,52.5)" style="opacity: 1;"><text class="legendtext" text-anchor="start" x="40" y="4.680000000000001" style="font-family: 'Open Sans', verdana, arial, sans-serif; font-size: 12px; fill: rgb(42, 63, 95); fill-opacity: 1; white-space: pre;">Porter</text><g class="layers" style="opacity: 1;"><g class="legendfill"/><g class="legendlines"/><g class="legendsymbols"><g class="legendpoints"><path class="legendpie" d="M6,6H-6V-6H6Z" transform="translate(20,0)" style="fill: rgb(148, 103, 189); fill-opacity: 1; stroke-width: 0; stroke: rgb(68, 68, 68); stroke-opacity: 1;"/></g></g></g><rect class="legendtoggle" x="0" y="-9.5" width="166.046875" height="19" style="fill: rgb(0, 0, 0); fill-opacity: 0;"/></g><g class="traces" transform="translate(0,71.5)" style="opacity: 1;"><text class="legendtext" text-anchor="start" x="40" y="4.680000000000001" style="font-family: 'Open Sans', verdana, arial, sans-serif; font-size: 12px; fill: rgb(42, 63, 95); fill-opacity: 1; white-space: pre;">India Pale Ale (IPA)</text><g class="layers" style="opacity: 1;"><g class="legendfill"/><g class="legendlines"/><g class="legendsymbols"><g class="legendpoints"><path class="legendpie" d="M6,6H-6V-6H6Z" transform="translate(20,0)" style="fill: rgb(255, 187, 120); fill-opacity: 1; stroke-width: 0; stroke: rgb(68, 68, 68); stroke-opacity: 1;"/></g></g></g><rect class="legendtoggle" x="0" y="-9.5" width="166.046875" height="19" style="fill: rgb(0, 0, 0); fill-opacity: 0;"/></g><g class="traces" transform="translate(0,90.5)" style="opacity: 1;"><text class="legendtext" text-anchor="start" x="40" y="4.680000000000001" style="font-family: 'Open Sans', verdana, arial, sans-serif; font-size: 12px; fill: rgb(42, 63, 95); fill-opacity: 1; white-space: pre;">Strong Ale</text><g class="layers" style="opacity: 1;"><g class="legendfill"/><g class="legendlines"/><g class="legendsymbols"><g class="legendpoints"><path class="legendpie" d="M6,6H-6V-6H6Z" transform="translate(20,0)" style="fill: rgb(247, 182, 210); fill-opacity: 1; stroke-width: 0; stroke: rgb(68, 68, 68); stroke-opacity: 1;"/></g></g></g><rect class="legendtoggle" x="0" y="-9.5" width="166.046875" height="19" style="fill: rgb(0, 0, 0); fill-opacity: 0;"/></g><g class="traces" transform="translate(0,109.5)" style="opacity: 1;"><text class="legendtext" text-anchor="start" x="40" y="4.680000000000001" style="font-family: 'Open Sans', verdana, arial, sans-serif; font-size: 12px; fill: rgb(42, 63, 95); fill-opacity: 1; white-space: pre;">Belgian Ale</text><g class="layers" style="opacity: 1;"><g class="legendfill"/><g class="legendlines"/><g class="legendsymbols"><g class="legendpoints"><path class="legendpie" d="M6,6H-6V-6H6Z" transform="translate(20,0)" style="fill: rgb(31, 119, 180); fill-opacity: 1; stroke-width: 0; stroke: rgb(68, 68, 68); stroke-opacity: 1;"/></g></g></g><rect class="legendtoggle" x="0" y="-9.5" width="166.046875" height="19" style="fill: rgb(0, 0, 0); fill-opacity: 0;"/></g><g class="traces" transform="translate(0,128.5)" style="opacity: 1;"><text class="legendtext" text-anchor="start" x="40" y="4.680000000000001" style="font-family: 'Open Sans', verdana, arial, sans-serif; font-size: 12px; fill: rgb(42, 63, 95); fill-opacity: 1; white-space: pre;">Saison &amp; Farmhouse</text><g class="layers" style="opacity: 1;"><g class="legendfill"/><g class="legendlines"/><g class="legendsymbols"><g class="legendpoints"><path class="legendpie" d="M6,6H-6V-6H6Z" transform="translate(20,0)" style="fill: rgb(197, 176, 213); fill-opacity: 1; stroke-width: 0; stroke: rgb(68, 68, 68); stroke-opacity: 1;"/></g></g></g><rect class="legendtoggle" x="0" y="-9.5" width="166.046875" height="19" style="fill: rgb(0, 0, 0); fill-opacity: 0;"/></g><g class="traces" transform="translate(0,147.5)" style="opacity: 1;"><text class="legendtext" text-anchor="start" x="40" y="4.680000000000001" style="font-family: 'Open Sans', verdana, arial, sans-serif; font-size: 12px; fill: rgb(42, 63, 95); fill-opacity: 1; white-space: pre;">Hybrid Styles</text><g class="layers" style="opacity: 1;"><g class="legendfill"/><g class="legendlines"/><g class="legendsymbols"><g class="legendpoints"><path class="legendpie" d="M6,6H-6V-6H6Z" transform="translate(20,0)" style="fill: rgb(255, 127, 14); fill-opacity: 1; stroke-width: 0; stroke: rgb(68, 68, 68); stroke-opacity: 1;"/></g></g></g><rect class="legendtoggle" x="0" y="-9.5" width="166.046875" height="19" style="fill: rgb(0, 0, 0); fill-opacity: 0;"/></g><g class="traces" transform="translate(0,166.5)" style="opacity: 1;"><text class="legendtext" text-anchor="start" x="40" y="4.680000000000001" style="font-family: 'Open Sans', verdana, arial, sans-serif; font-size: 12px; fill: rgb(42, 63, 95); fill-opacity: 1; white-space: pre;">Pale Ale</text><g class="layers" style="opacity: 1;"><g class="legendfill"/><g class="legendlines"/><g class="legendsymbols"><g class="legendpoints"><path class="legendpie" d="M6,6H-6V-6H6Z" transform="translate(20,0)" style="fill: rgb(214, 39, 40); fill-opacity: 1; stroke-width: 0; stroke: rgb(68, 68, 68); stroke-opacity: 1;"/></g></g></g><rect class="legendtoggle" x="0" y="-9.5" width="166.046875" height="19" style="fill: rgb(0, 0, 0); fill-opacity: 0;"/></g><g class="traces" transform="translate(0,185.5)" style="opacity: 1;"><text class="legendtext" text-anchor="start" x="40" y="4.680000000000001" style="font-family: 'Open Sans', verdana, arial, sans-serif; font-size: 12px; fill: rgb(42, 63, 95); fill-opacity: 1; white-space: pre;">Wheat Beer</text><g class="layers" style="opacity: 1;"><g class="legendfill"/><g class="legendlines"/><g class="legendsymbols"><g class="legendpoints"><path class="legendpie" d="M6,6H-6V-6H6Z" transform="translate(20,0)" style="fill: rgb(199, 199, 199); fill-opacity: 1; stroke-width: 0; stroke: rgb(68, 68, 68); stroke-opacity: 1;"/></g></g></g><rect class="legendtoggle" x="0" y="-9.5" width="166.046875" height="19" style="fill: rgb(0, 0, 0); fill-opacity: 0;"/></g><g class="traces" transform="translate(0,204.5)" style="opacity: 1;"><text class="legendtext" text-anchor="start" x="40" y="4.680000000000001" style="font-family: 'Open Sans', verdana, arial, sans-serif; font-size: 12px; fill: rgb(42, 63, 95); fill-opacity: 1; white-space: pre;">Strong Lager</text><g class="layers" style="opacity: 1;"><g class="legendfill"/><g class="legendlines"/><g class="legendsymbols"><g class="legendpoints"><path class="legendpie" d="M6,6H-6V-6H6Z" transform="translate(20,0)" style="fill: rgb(127, 127, 127); fill-opacity: 1; stroke-width: 0; stroke: rgb(68, 68, 68); stroke-opacity: 1;"/></g></g></g><rect class="legendtoggle" x="0" y="-9.5" width="166.046875" height="19" style="fill: rgb(0, 0, 0); fill-opacity: 0;"/></g><g class="traces" transform="translate(0,223.5)" style="opacity: 1;"><text class="legendtext" text-anchor="start" x="40" y="4.680000000000001" style="font-family: 'Open Sans', verdana, arial, sans-serif; font-size: 12px; fill: rgb(42, 63, 95); fill-opacity: 1; white-space: pre;">Dark Lager</text><g class="layers" style="opacity: 1;"><g class="legendfill"/><g class="legendlines"/><g class="legendsymbols"><g class="legendpoints"><path class="legendpie" d="M6,6H-6V-6H6Z" transform="translate(20,0)" style="fill: rgb(174, 199, 232); fill-opacity: 1; stroke-width: 0; stroke: rgb(68, 68, 68); stroke-opacity: 1;"/></g></g></g><rect class="legendtoggle" x="0" y="-9.5" width="166.046875" height="19" style="fill: rgb(0, 0, 0); fill-opacity: 0;"/></g><g class="traces" transform="translate(0,242.5)" style="opacity: 1;"><text class="legendtext" text-anchor="start" x="40" y="4.680000000000001" style="font-family: 'Open Sans', verdana, arial, sans-serif; font-size: 12px; fill: rgb(42, 63, 95); fill-opacity: 1; white-space: pre;">Specialty &amp; Seasonal</text><g class="layers" style="opacity: 1;"><g class="legendfill"/><g class="legendlines"/><g class="legendsymbols"><g class="legendpoints"><path class="legendpie" d="M6,6H-6V-6H6Z" transform="translate(20,0)" style="fill: rgb(196, 156, 148); fill-opacity: 1; stroke-width: 0; stroke: rgb(68, 68, 68); stroke-opacity: 1;"/></g></g></g><rect class="legendtoggle" x="0" y="-9.5" width="166.046875" height="19" style="fill: rgb(0, 0, 0); fill-opacity: 0;"/></g><g class="traces" transform="translate(0,261.5)" style="opacity: 1;"><text class="legendtext" text-anchor="start" x="40" y="4.680000000000001" style="font-family: 'Open Sans', verdana, arial, sans-serif; font-size: 12px; fill: rgb(42, 63, 95); fill-opacity: 1; white-space: pre;">Pilsner</text><g class="layers" style="opacity: 1;"><g class="legendfill"/><g class="legendlines"/><g class="legendsymbols"><g class="legendpoints"><path class="legendpie" d="M6,6H-6V-6H6Z" transform="translate(20,0)" style="fill: rgb(255, 152, 150); fill-opacity: 1; stroke-width: 0; stroke: rgb(68, 68, 68); stroke-opacity: 1;"/></g></g></g><rect class="legendtoggle" x="0" y="-9.5" width="166.046875" height="19" style="fill: rgb(0, 0, 0); fill-opacity: 0;"/></g><g class="traces" transform="translate(0,280.5)" style="opacity: 1;"><text class="legendtext" text-anchor="start" x="40" y="4.680000000000001" style="font-family: 'Open Sans', verdana, arial, sans-serif; font-size: 12px; fill: rgb(42, 63, 95); fill-opacity: 1; white-space: pre;">Lager</text><g class="layers" style="opacity: 1;"><g class="legendfill"/><g class="legendlines"/><g class="legendsymbols"><g class="legendpoints"><path class="legendpie" d="M6,6H-6V-6H6Z" transform="translate(20,0)" style="fill: rgb(44, 160, 44); fill-opacity: 1; stroke-width: 0; stroke: rgb(68, 68, 68); stroke-opacity: 1;"/></g></g></g><rect class="legendtoggle" x="0" y="-9.5" width="166.046875" height="19" style="fill: rgb(0, 0, 0); fill-opacity: 0;"/></g><g class="traces" transform="translate(0,299.5)" style="opacity: 1;"><text class="legendtext" text-anchor="start" x="40" y="4.680000000000001" style="font-family: 'Open Sans', verdana, arial, sans-serif; font-size: 12px; fill: rgb(42, 63, 95); fill-opacity: 1; white-space: pre;">Low Alcohol</text><g class="layers" style="opacity: 1;"><g class="legendfill"/><g class="legendlines"/><g class="legendsymbols"><g class="legendpoints"><path class="legendpie" d="M6,6H-6V-6H6Z" transform="translate(20,0)" style="fill: rgb(152, 223, 138); fill-opacity: 1; stroke-width: 0; stroke: rgb(68, 68, 68); stroke-opacity: 1;"/></g></g></g><rect class="legendtoggle" x="0" y="-9.5" width="166.046875" height="19" style="fill: rgb(0, 0, 0); fill-opacity: 0;"/></g></g></g><rect class="scrollbar" rx="20" ry="3" width="0" height="0" x="0" y="0" style="fill: rgb(128, 139, 164); fill-opacity: 1;"/></g><g class="g-gtitle"><text class="gtitle" x="550" y="50" text-anchor="middle" dy="0em" style="opacity: 1; font-family: 'Open Sans', verdana, arial, sans-serif; font-size: 17px; fill: rgb(42, 63, 95); fill-opacity: 1; white-space: pre;">Beer styles in Belgium and Canada (Based on Average Ratings)</text></g><g class="annotation" data-index="0" style="opacity: 1;"><g class="annotation-text-g" transform="rotate(0,270.70000000000005,78.49999999999997)"><g class="cursor-pointer" transform="translate(239,68)"><rect class="bg" x="0.5" y="0.5" width="62" height="20" style="stroke-width: 1px; stroke: rgb(0, 0, 0); stroke-opacity: 0; fill: rgb(0, 0, 0); fill-opacity: 0;"/><text class="annotation-text" text-anchor="middle" x="31.59375" y="15.5" style="font-family: Arial; font-size: 15px; fill: rgb(0, 0, 0); fill-opacity: 1; white-space: pre;"><tspan style="font-weight:bold">Belgium</tspan></text></g></g></g><g class="annotation" data-index="1" style="opacity: 1;"><g class="annotation-text-g" transform="rotate(0,687.8000000000001,78.49999999999997)"><g class="cursor-pointer" transform="translate(659,68)"><rect class="bg" x="0.5" y="0.5" width="57" height="20" style="stroke-width: 1px; stroke: rgb(0, 0, 0); stroke-opacity: 0; fill: rgb(0, 0, 0); fill-opacity: 0;"/><text class="annotation-text" text-anchor="middle" x="29.09375" y="15.5" style="font-family: Arial; font-size: 15px; fill: rgb(0, 0, 0); fill-opacity: 1; white-space: pre;"><tspan style="font-weight:bold">Canada</tspan></text></g></g></g></g></svg>