<svg class="main-svg" xmlns="http://www.w3.org/2000/svg" xmlns:xlink="http://www.w3.org/1999/xlink" width="1100" height="500" style="" viewBox="0 0 1100 500"><rect x="0" y="0" width="1100" height="500" style="fill: rgb(255, 255, 255); fill-opacity: 1;"/><defs id="defs-abdfe7"><g class="clips"/><g class="gradients"/><g class="patterns"/></defs><g class="bglayer"/><g class="layer-below"><g class="imagelayer"/><g class="shapelayer"/></g><g class="cartesianlayer"/><g class="polarlayer"/><g class="smithlayer"/><g class="ternarylayer"/><g class="geolayer"/><g class="funnelarealayer"/><g class="pielayer"><g class="trace" stroke-linejoin="round" style="opacity: 1;"><g class="slice"><path class="surface" d="M288.3322198031046,216.27670911055714a48,48 0 0 0 -19.805904013630926,-4.276709110557126l0,-112a160,160 0 0 1 66.01968004543642,14.255697035190423Z" style="pointer-events: none; fill: rgb(247, 182, 210); fill-opacity: 1; stroke-width: 0; stroke: rgb(68, 68, 68); stroke-opacity: 1;"/><g class="slicetext"><text data-notex="1" class="slicetext" transform="translate(292.8833186958155,132.72744326978065)rotate(-77.81514278596433)" text-anchor="middle" x="0" y="0" style="font-family: 'Open Sans', verdana, arial, sans-serif; font-size: 12px; fill: rgb(68, 68, 68); fill-opacity: 1; white-space: pre;"><tspan class="line" dy="0em" x="0" y="0">Stout</tspan><tspan class="line" dy="1.3em" x="0" y="0">6.77%</tspan></text></g></g><g class="slice"><path class="surface" d="M268.52631578947364,212a48,48 0 0 0 -19.63934885955832,4.201644136194273l-45.825147338969416,-102.19616368221335a160,160 0 0 1 65.46449619852774,-14.005480453980908Z" style="pointer-events: none; fill: rgb(196, 156, 148); fill-opacity: 1; stroke-width: 0; stroke: rgb(68, 68, 68); stroke-opacity: 1;"/><g class="slicetext"><text data-notex="1" class="slicetext" transform="translate(245.28038897067776,136.742415055097)rotate(77.92417747873753)" text-anchor="middle" x="0" y="0" style="font-family: 'Open Sans', verdana, arial, sans-serif; font-size: 12px; fill: rgb(68, 68, 68); fill-opacity: 1; white-space: pre;"><tspan class="line" dy="0em" x="0" y="0">Sour Ale</tspan><tspan class="line" dy="1.3em" x="0" y="0">6.71%</tspan></text></g></g><g class="slice"><path class="surface" d="M248.88696692991533,216.20164413619426a48,48 0 0 0 -16.123154020978088,11.78205708147261l-83.44584005458495,-74.70469715877726a160,160 0 0 1 53.743846736593625,-39.2735236049087Z" style="pointer-events: none; fill: rgb(197, 176, 213); fill-opacity: 1; stroke-width: 0; stroke: rgb(68, 68, 68); stroke-opacity: 1;"/><g class="slicetext"><text data-notex="1" class="slicetext" transform="translate(194.38092345951188,153.35838855791465)rotate(53.84238855771332)" text-anchor="middle" x="0" y="0" style="font-family: 'Open Sans', verdana, arial, sans-serif; font-size: 12px; fill: rgb(68, 68, 68); fill-opacity: 1; white-space: pre;"><tspan class="line" dy="0em" x="0" y="0">Porter</tspan><tspan class="line" dy="1.3em" x="0" y="0">6.67%</tspan></text></g></g><g class="slice"><path class="surface" d="M232.76381290893724,227.9837012176669a48,48 0 0 0 -9.763164381344113,16.80401360355279l-106.22655694438788,-35.49533208382076a160,160 0 0 1 32.54388127114704,-56.0133786785093Z" style="pointer-events: none; fill: rgb(255, 187, 120); fill-opacity: 1; stroke-width: 0; stroke: rgb(68, 68, 68); stroke-opacity: 1;"/><g class="slicetext"><text data-notex="1" class="slicetext" transform="translate(174.51329638621587,202.5392401094368)scale(0.8036067392142455)rotate(30.156670560746647)" text-anchor="middle" x="0" y="0" style="font-family: 'Open Sans', verdana, arial, sans-serif; font-size: 12px; fill: rgb(68, 68, 68); fill-opacity: 1; white-space: pre;"><tspan class="line" dy="0em" x="0" y="0">India Pale Ale (IPA)</tspan><tspan class="line" dy="1.3em" x="0" y="0">6.49%</tspan></text></g></g><g class="slice"><path class="surface" d="M223.0006485275931,244.78771482121968a48,48 0 0 0 -2.33795184487918,18.828079144568132l-111.68177791577263,8.436852586838208a160,160 0 0 1 7.793172816263933,-62.760263815227106Z" style="pointer-events: none; fill: rgb(127, 127, 127); fill-opacity: 1; stroke-width: 0; stroke: rgb(68, 68, 68); stroke-opacity: 1;"/><g class="slicetext"><text data-notex="1" class="slicetext" transform="translate(147.2586235703125,241.8635969022867)rotate(7.07839525906536)" text-anchor="middle" x="0" y="0" style="font-family: 'Open Sans', verdana, arial, sans-serif; font-size: 12px; fill: rgb(255, 255, 255); fill-opacity: 1; white-space: pre;"><tspan class="line" dy="0em" x="0" y="0">Strong Ale</tspan><tspan class="line" dy="1.3em" x="0" y="0">6.33%</tspan></text></g></g><g class="slice"><path class="surface" d="M220.66269668271394,263.6157939657878a48,48 0 0 0 5.119713264705146,18.223585910151304l-99.7357802981273,50.95855304385792a160,160 0 0 1 -17.065710882350487,-60.74528636717102Z" style="pointer-events: none; fill: rgb(31, 119, 180); fill-opacity: 1; stroke-width: 0; stroke: rgb(68, 68, 68); stroke-opacity: 1;"/><g class="slicetext"><text data-notex="1" class="slicetext" transform="translate(150.729998373803,289.92061545342824)rotate(-15.692115715030013)" text-anchor="middle" x="0" y="0" style="font-family: 'Open Sans', verdana, arial, sans-serif; font-size: 12px; fill: rgb(255, 255, 255); fill-opacity: 1; white-space: pre;"><tspan class="line" dy="0em" x="0" y="0">Belgian Ale</tspan><tspan class="line" dy="1.3em" x="0" y="0">6.32%</tspan></text></g></g><g class="slice"><path class="surface" d="M225.7824099474191,281.83937987593913a48,48 0 0 0 11.478757501639553,14.581637397770379l-72.95201279430167,84.98237363865547a160,160 0 0 1 -38.26252500546518,-48.605457992567935Z" style="pointer-events: none; fill: rgb(140, 86, 75); fill-opacity: 1; stroke-width: 0; stroke: rgb(68, 68, 68); stroke-opacity: 1;"/><g class="slicetext"><text data-notex="1" class="slicetext" transform="translate(180.4683941829677,326.33756006395663)scale(0.7671013368762252)rotate(-38.21004570548337)" text-anchor="middle" x="0" y="0" style="font-family: 'Open Sans', verdana, arial, sans-serif; font-size: 12px; fill: rgb(255, 255, 255); fill-opacity: 1; white-space: pre;"><tspan class="line" dy="0em" x="0" y="0">Saison &amp; Farmhouse</tspan><tspan class="line" dy="1.3em" x="0" y="0">6.19%</tspan></text></g></g><g class="slice"><path class="surface" d="M237.26116744905863,296.4210172737095a48,48 0 0 0 15.880255555023659,9.04660938506844l-35.898083165913135,106.09112887048184a160,160 0 0 1 -52.9341851834122,-30.1553646168948Z" style="pointer-events: none; fill: rgb(255, 127, 14); fill-opacity: 1; stroke-width: 0; stroke: rgb(68, 68, 68); stroke-opacity: 1;"/><g class="slicetext"><text data-notex="1" class="slicetext" transform="translate(207.16975828222687,361.71888169047355)scale(0.9698790581817013)rotate(-60.330848969147155)" text-anchor="middle" x="0" y="0" style="font-family: 'Open Sans', verdana, arial, sans-serif; font-size: 12px; fill: rgb(68, 68, 68); fill-opacity: 1; white-space: pre;"><tspan class="line" dy="0em" x="0" y="0">Hybrid Styles</tspan><tspan class="line" dy="1.3em" x="0" y="0">6.1%</tspan></text></g></g><g class="slice"><path class="surface" d="M253.1414230040823,305.46762665877793a48,48 0 0 0 17.808397611094062,2.471153304418831l5.654844593306345,111.85715324745911a160,160 0 0 1 -59.361325370313544,-8.237177681396105Z" style="pointer-events: none; fill: rgb(255, 152, 150); fill-opacity: 1; stroke-width: 0; stroke: rgb(68, 68, 68); stroke-opacity: 1;"/><g class="slicetext"><text data-notex="1" class="slicetext" transform="translate(247.7768170992988,387.3069522930615)rotate(-82.09989289818668)" text-anchor="middle" x="0" y="0" style="font-family: 'Open Sans', verdana, arial, sans-serif; font-size: 12px; fill: rgb(68, 68, 68); fill-opacity: 1; white-space: pre;"><tspan class="line" dy="0em" x="0" y="0">Pale Ale</tspan><tspan class="line" dy="1.3em" x="0" y="0">6%</tspan></text></g></g><g class="slice"><path class="surface" d="M270.94982061517635,307.93877996319674a48,48 0 0 0 17.104622202994,-4.090721229073935l45.56562973362568,102.3121370462866a160,160 0 0 1 -57.015407343313335,13.63573743024645Z" style="pointer-events: none; fill: rgb(214, 39, 40); fill-opacity: 1; stroke-width: 0; stroke: rgb(68, 68, 68); stroke-opacity: 1;"/><g class="slicetext"><text data-notex="1" class="slicetext" transform="translate(300.3917028395183,380.1066097935333)rotate(76.5498466812345)" text-anchor="middle" x="0" y="0" style="font-family: 'Open Sans', verdana, arial, sans-serif; font-size: 12px; fill: rgb(255, 255, 255); fill-opacity: 1; white-space: pre;"><tspan class="line" dy="0em" x="0" y="0">Other Ales</tspan><tspan class="line" dy="1.3em" x="0" y="0">5.86%</tspan></text></g></g><g class="slice"><path class="surface" d="M288.05444281817034,303.84805873412284a48,48 0 0 0 14.24256526197494,-9.737351585065218l78.79828201156721,79.59165001446775a160,160 0 0 1 -47.47521753991647,32.45783861688406Z" style="pointer-events: none; fill: rgb(188, 189, 34); fill-opacity: 1; stroke-width: 0; stroke: rgb(68, 68, 68); stroke-opacity: 1;"/><g class="slicetext"><text data-notex="1" class="slicetext" transform="translate(340.1925803958703,359.4119252389315)rotate(55.6403796069327)" text-anchor="middle" x="0" y="0" style="font-family: 'Open Sans', verdana, arial, sans-serif; font-size: 12px; fill: rgb(68, 68, 68); fill-opacity: 1; white-space: pre;"><tspan class="line" dy="0em" x="0" y="0">Wheat Beer</tspan><tspan class="line" dy="1.3em" x="0" y="0">5.75%</tspan></text></g></g><g class="slice"><path class="surface" d="M302.2970080801453,294.1107071490576a48,48 0 0 0 9.856667723132754,-14.094377359960411l101.79717336554363,46.70476950789346a160,160 0 0 1 -32.85555907710918,46.981257866534705Z" style="pointer-events: none; fill: rgb(199, 199, 199); fill-opacity: 1; stroke-width: 0; stroke: rgb(68, 68, 68); stroke-opacity: 1;"/><g class="slicetext"><text data-notex="1" class="slicetext" transform="translate(368.9685946705222,326.6925910805136)scale(0.9523782994163829)rotate(34.966375989210405)" text-anchor="middle" x="0" y="0" style="font-family: 'Open Sans', verdana, arial, sans-serif; font-size: 12px; fill: rgb(68, 68, 68); fill-opacity: 1; white-space: pre;"><tspan class="line" dy="0em" x="0" y="0">Strong Lager</tspan><tspan class="line" dy="1.3em" x="0" y="0">5.73%</tspan></text></g></g><g class="slice"><path class="surface" d="M312.1536758032781,280.0163297890972a48,48 0 0 0 4.222978025634867,-16.228830678682804l111.65078875869165,8.837497924300251a160,160 0 0 1 -14.076593418782892,54.09610226227601Z" style="pointer-events: none; fill: rgb(174, 199, 232); fill-opacity: 1; stroke-width: 0; stroke: rgb(68, 68, 68); stroke-opacity: 1;"/><g class="slicetext"><text data-notex="1" class="slicetext" transform="translate(389.4881214616707,288.3196103501824)rotate(14.585730537793324)" text-anchor="middle" x="0" y="0" style="font-family: 'Open Sans', verdana, arial, sans-serif; font-size: 12px; fill: rgb(68, 68, 68); fill-opacity: 1; white-space: pre;"><tspan class="line" dy="0em" x="0" y="0">Dark Lager</tspan><tspan class="line" dy="1.3em" x="0" y="0">5.59%</tspan></text></g></g><g class="slice"><path class="surface" d="M316.37665382891294,263.7874991104144a48,48 0 0 0 -1.4864195785809584,-16.21275826082572l108.18247640866942,-28.99227135095976a160,160 0 0 1 4.954731928603195,54.042527536085736Z" style="pointer-events: none; fill: rgb(227, 119, 194); fill-opacity: 1; stroke-width: 0; stroke: rgb(68, 68, 68); stroke-opacity: 1;"/><g class="slicetext"><text data-notex="1" class="slicetext" transform="translate(380.3510375584665,247.54101124328798)scale(0.7193692713436257)rotate(-5.2383524519457865)" text-anchor="middle" x="0" y="0" style="font-family: 'Open Sans', verdana, arial, sans-serif; font-size: 12px; fill: rgb(68, 68, 68); fill-opacity: 1; white-space: pre;"><tspan class="line" dy="0em" x="0" y="0">Specialty &amp; Seasonal</tspan><tspan class="line" dy="1.3em" x="0" y="0">5.42%</tspan></text></g></g><g class="slice"><path class="surface" d="M314.89023425033196,247.57474084958866a48,48 0 0 0 -6.136027102522931,-13.76093486212063l93.86507983611591,-61.10111936257456a160,160 0 0 1 20.453423675076436,45.86978287373543Z" style="pointer-events: none; fill: rgb(148, 103, 189); fill-opacity: 1; stroke-width: 0; stroke: rgb(68, 68, 68); stroke-opacity: 1;"/><g class="slicetext"><text data-notex="1" class="slicetext" transform="translate(390.8858706979389,202.09503234696103)rotate(-24.032183453142522)" text-anchor="middle" x="0" y="0" style="font-family: 'Open Sans', verdana, arial, sans-serif; font-size: 12px; fill: rgb(255, 255, 255); fill-opacity: 1; white-space: pre;"><tspan class="line" dy="0em" x="0" y="0">Pilsner</tspan><tspan class="line" dy="1.3em" x="0" y="0">5.02%</tspan></text></g></g><g class="slice"><path class="surface" d="M308.75420714780904,233.81380598746804a48,48 0 0 0 -9.125264047378954,-10.373709903585585l72.57279705889835,-85.30644247094092a160,160 0 0 1 30.417546824596513,34.57903301195195Z" style="pointer-events: none; fill: rgb(44, 160, 44); fill-opacity: 1; stroke-width: 0; stroke: rgb(68, 68, 68); stroke-opacity: 1;"/><g class="slicetext"><text data-notex="1" class="slicetext" transform="translate(371.2466645427204,165.57340167419505)rotate(-41.336567498352)" text-anchor="middle" x="0" y="0" style="font-family: 'Open Sans', verdana, arial, sans-serif; font-size: 12px; fill: rgb(255, 255, 255); fill-opacity: 1; white-space: pre;"><tspan class="line" dy="0em" x="0" y="0">Lager</tspan><tspan class="line" dy="1.3em" x="0" y="0">4.6%</tspan></text></g></g><g class="slice"><path class="surface" d="M299.6289431004301,223.44009608388245a48,48 0 0 0 -11.296723297325466,-7.163386973325315l46.2137760318056,-102.02101207536666a160,160 0 0 1 37.65574432441822,23.87795657775105Z" style="pointer-events: none; fill: rgb(152, 223, 138); fill-opacity: 1; stroke-width: 0; stroke: rgb(68, 68, 68); stroke-opacity: 1;"/><g class="slicetext"><text data-notex="1" class="slicetext" transform="translate(334.62448386040893,150.85082558891722)scale(0.8610925450563031)rotate(-57.62072861520244)" text-anchor="middle" x="0" y="0" style="font-family: 'Open Sans', verdana, arial, sans-serif; font-size: 12px; fill: rgb(68, 68, 68); fill-opacity: 1; white-space: pre;"><tspan class="line" dy="0em" x="0" y="0">Low Alcohol</tspan><tspan class="line" dy="1.3em" x="0" y="0">4.45%</tspan></text></g></g></g><g class="trace" stroke-linejoin="round" style="opacity: 1;"><g class="slice"><path class="surface" d="M716.306697846826,216.09806292790714a48,48 0 0 0 -19.406697846825953,-4.098062927907142l0,-112a160,160 0 0 1 64.68899282275318,13.660209759690474Z" style="pointer-events: none; fill: rgb(247, 182, 210); fill-opacity: 1; stroke-width: 0; stroke: rgb(68, 68, 68); stroke-opacity: 1;"/><g class="slicetext"><text data-notex="1" class="slicetext" transform="translate(720.7682459408813,132.18533300180587)rotate(-78.07617115417338)" text-anchor="middle" x="0" y="0" style="font-family: 'Open Sans', verdana, arial, sans-serif; font-size: 12px; fill: rgb(68, 68, 68); fill-opacity: 1; white-space: pre;"><tspan class="line" dy="0em" x="0" y="0">Stout</tspan><tspan class="line" dy="1.3em" x="0" y="0">6.62%</tspan></text></g></g><g class="slice"><path class="surface" d="M696.9,212a48,48 0 0 0 -19.187633729882773,4.001878314547732l-44.77114536972647,-102.66228393272195a160,160 0 0 1 63.958779099609245,-13.339594381825776Z" style="pointer-events: none; fill: rgb(196, 156, 148); fill-opacity: 1; stroke-width: 0; stroke: rgb(68, 68, 68); stroke-opacity: 1;"/><g class="slicetext"><text data-notex="1" class="slicetext" transform="translate(674.1826111009769,136.11657406465258)rotate(78.21896313332877)" text-anchor="middle" x="0" y="0" style="font-family: 'Open Sans', verdana, arial, sans-serif; font-size: 12px; fill: rgb(68, 68, 68); fill-opacity: 1; white-space: pre;"><tspan class="line" dy="0em" x="0" y="0">Sour Ale</tspan><tspan class="line" dy="1.3em" x="0" y="0">6.55%</tspan></text></g></g><g class="slice"><path class="surface" d="M677.7123662701172,216.00187831454772a48,48 0 0 0 -15.972155686966369,11.321077630598973l-82.03950863931466,-76.24643612799102a160,160 0 0 1 53.24051895655457,-37.73692543532991Z" style="pointer-events: none; fill: rgb(197, 176, 213); fill-opacity: 1; stroke-width: 0; stroke: rgb(68, 68, 68); stroke-opacity: 1;"/><g class="slicetext"><text data-notex="1" class="slicetext" transform="translate(624.068365609868,151.96424265372585)rotate(54.67095307035993)" text-anchor="middle" x="0" y="0" style="font-family: 'Open Sans', verdana, arial, sans-serif; font-size: 12px; fill: rgb(68, 68, 68); fill-opacity: 1; white-space: pre;"><tspan class="line" dy="0em" x="0" y="0">Porter</tspan><tspan class="line" dy="1.3em" x="0" y="0">6.54%</tspan></text></g></g><g class="slice"><path class="surface" d="M661.7402105831509,227.3229559451467a48,48 0 0 0 -9.933924793003468,16.228428953266896l-105.21866648965609,-38.38010190370159a160,160 0 0 1 33.113082643344896,-54.09476317755632Z" style="pointer-events: none; fill: rgb(31, 119, 180); fill-opacity: 1; stroke-width: 0; stroke: rgb(68, 68, 68); stroke-opacity: 1;"/><g class="slicetext"><text data-notex="1" class="slicetext" transform="translate(594.9639022013198,194.02019878858377)rotate(31.472093378052136)" text-anchor="middle" x="0" y="0" style="font-family: 'Open Sans', verdana, arial, sans-serif; font-size: 12px; fill: rgb(255, 255, 255); fill-opacity: 1; white-space: pre;"><tspan class="line" dy="0em" x="0" y="0">Belgian Ale</tspan><tspan class="line" dy="1.3em" x="0" y="0">6.35%</tspan></text></g></g><g class="slice"><path class="surface" d="M651.8062857901474,243.5513848984136a48,48 0 0 0 -2.848103364980244,18.81126776785941l-111.86424100794332,5.512856221303688a160,160 0 0 1 9.49367788326748,-62.7042258928647Z" style="pointer-events: none; fill: rgb(255, 187, 120); fill-opacity: 1; stroke-width: 0; stroke: rgb(68, 68, 68); stroke-opacity: 1;"/><g class="slicetext"><text data-notex="1" class="slicetext" transform="translate(587.9318715258581,241.03991625927338)scale(0.7968473867831943)rotate(8.609428979598192)" text-anchor="middle" x="0" y="0" style="font-family: 'Open Sans', verdana, arial, sans-serif; font-size: 12px; fill: rgb(68, 68, 68); fill-opacity: 1; white-space: pre;"><tspan class="line" dy="0em" x="0" y="0">India Pale Ale (IPA)</tspan><tspan class="line" dy="1.3em" x="0" y="0">6.35%</tspan></text></g></g><g class="slice"><path class="surface" d="M648.9581824251671,262.362652666273a48,48 0 0 0 4.637452891375212,18.343191903850343l-101.0435175947345,48.313637330287825a160,160 0 0 1 -15.458176304584043,-61.14397301283448Z" style="pointer-events: none; fill: rgb(140, 86, 75); fill-opacity: 1; stroke-width: 0; stroke: rgb(68, 68, 68); stroke-opacity: 1;"/><g class="slicetext"><text data-notex="1" class="slicetext" transform="translate(589.8302430987985,284.6335566977377)scale(0.772945282357599)rotate(-14.187998030561971)" text-anchor="middle" x="0" y="0" style="font-family: 'Open Sans', verdana, arial, sans-serif; font-size: 12px; fill: rgb(255, 255, 255); fill-opacity: 1; white-space: pre;"><tspan class="line" dy="0em" x="0" y="0">Saison &amp; Farmhouse</tspan><tspan class="line" dy="1.3em" x="0" y="0">6.31%</tspan></text></g></g><g class="slice"><path class="surface" d="M653.5956353165424,280.70584457012336a48,48 0 0 0 10.942078326879043,14.743872237981147l-75.51200149868339,82.71600588557716a160,160 0 0 1 -36.47359442293015,-49.14624079327049Z" style="pointer-events: none; fill: rgb(255, 127, 14); fill-opacity: 1; stroke-width: 0; stroke: rgb(68, 68, 68); stroke-opacity: 1;"/><g class="slicetext"><text data-notex="1" class="slicetext" transform="translate(599.8467586973726,328.3294928668576)scale(0.9721324502024847)rotate(-36.58074071808062)" text-anchor="middle" x="0" y="0" style="font-family: 'Open Sans', verdana, arial, sans-serif; font-size: 12px; fill: rgb(68, 68, 68); fill-opacity: 1; white-space: pre;"><tspan class="line" dy="0em" x="0" y="0">Hybrid Styles</tspan><tspan class="line" dy="1.3em" x="0" y="0">6.13%</tspan></text></g></g><g class="slice"><path class="surface" d="M664.5377136434214,295.4497168081045a48,48 0 0 0 15.62329385916067,9.537016015822449l-39.05764916064183,104.96904325582955a160,160 0 0 1 -52.077646197202235,-31.79005338607483Z" style="pointer-events: none; fill: rgb(127, 127, 127); fill-opacity: 1; stroke-width: 0; stroke: rgb(68, 68, 68); stroke-opacity: 1;"/><g class="slicetext"><text data-notex="1" class="slicetext" transform="translate(630.0278288082993,363.685483504803)rotate(-58.59861944664635)" text-anchor="middle" x="0" y="0" style="font-family: 'Open Sans', verdana, arial, sans-serif; font-size: 12px; fill: rgb(255, 255, 255); fill-opacity: 1; white-space: pre;"><tspan class="line" dy="0em" x="0" y="0">Strong Ale</tspan><tspan class="line" dy="1.3em" x="0" y="0">6.11%</tspan></text></g></g><g class="slice"><path class="surface" d="M680.161007502582,304.98673282392696a48,48 0 0 0 17.599133840368566,3.005559858025083l2.0069964668848237,111.98201625788808a160,160 0 0 1 -58.663779467895225,-10.01853286008361Z" style="pointer-events: none; fill: rgb(214, 39, 40); fill-opacity: 1; stroke-width: 0; stroke: rgb(68, 68, 68); stroke-opacity: 1;"/><g class="slicetext"><text data-notex="1" class="slicetext" transform="translate(673.0302522254624,381.62416287560956)rotate(-80.30858882533892)" text-anchor="middle" x="0" y="0" style="font-family: 'Open Sans', verdana, arial, sans-serif; font-size: 12px; fill: rgb(255, 255, 255); fill-opacity: 1; white-space: pre;"><tspan class="line" dy="0em" x="0" y="0">Other Ales</tspan><tspan class="line" dy="1.3em" x="0" y="0">5.95%</tspan></text></g></g><g class="slice"><path class="surface" d="M697.7601413429506,307.99229268195205a48,48 0 0 0 17.108231229988597,-3.4823209106731268l41.92620267019155,103.85660079965078a160,160 0 0 1 -57.027437433295326,11.607736368910423Z" style="pointer-events: none; fill: rgb(174, 199, 232); fill-opacity: 1; stroke-width: 0; stroke: rgb(68, 68, 68); stroke-opacity: 1;"/><g class="slicetext"><text data-notex="1" class="slicetext" transform="translate(724.4959447918992,380.2605673095423)rotate(78.49481629186948)" text-anchor="middle" x="0" y="0" style="font-family: 'Open Sans', verdana, arial, sans-serif; font-size: 12px; fill: rgb(68, 68, 68); fill-opacity: 1; white-space: pre;"><tspan class="line" dy="0em" x="0" y="0">Dark Lager</tspan><tspan class="line" dy="1.3em" x="0" y="0">5.82%</tspan></text></g></g><g class="slice"><path class="surface" d="M714.8683725729392,304.5099717712789a48,48 0 0 0 14.612863815597777,-9.26138264498519l76.02288490658636,82.246707961352a160,160 0 0 1 -48.70954605199259,30.871275483283966Z" style="pointer-events: none; fill: rgb(255, 152, 150); fill-opacity: 1; stroke-width: 0; stroke: rgb(68, 68, 68); stroke-opacity: 1;"/><g class="slicetext"><text data-notex="1" class="slicetext" transform="translate(768.9293427493227,367.9436239406076)rotate(57.63417763113472)" text-anchor="middle" x="0" y="0" style="font-family: 'Open Sans', verdana, arial, sans-serif; font-size: 12px; fill: rgb(68, 68, 68); fill-opacity: 1; white-space: pre;"><tspan class="line" dy="0em" x="0" y="0">Pale Ale</tspan><tspan class="line" dy="1.3em" x="0" y="0">5.77%</tspan></text></g></g><g class="slice"><path class="surface" d="M729.481236388537,295.2485891262937a48,48 0 0 0 10.348517851657748,-13.776835567804847l100.16942656045444,50.100758303140694a160,160 0 0 1 -34.49505950552583,45.92278522601616Z" style="pointer-events: none; fill: rgb(188, 189, 34); fill-opacity: 1; stroke-width: 0; stroke: rgb(68, 68, 68); stroke-opacity: 1;"/><g class="slicetext"><text data-notex="1" class="slicetext" transform="translate(796.7127564469273,331.1542239122801)rotate(36.912171193639665)" text-anchor="middle" x="0" y="0" style="font-family: 'Open Sans', verdana, arial, sans-serif; font-size: 12px; fill: rgb(68, 68, 68); fill-opacity: 1; white-space: pre;"><tspan class="line" dy="0em" x="0" y="0">Wheat Beer</tspan><tspan class="line" dy="1.3em" x="0" y="0">5.74%</tspan></text></g></g><g class="slice"><path class="surface" d="M739.8297542401947,281.47175355848884a48,48 0 0 0 4.784192314820253,-16.239229870518518l111.3325419617017,12.209221938597487a160,160 0 0 1 -15.947307716067513,54.13076623506173Z" style="pointer-events: none; fill: rgb(199, 199, 199); fill-opacity: 1; stroke-width: 0; stroke: rgb(68, 68, 68); stroke-opacity: 1;"/><g class="slicetext"><text data-notex="1" class="slicetext" transform="translate(813.6546918826587,291.3891128294779)scale(0.9444667637830823)rotate(16.415347394777882)" text-anchor="middle" x="0" y="0" style="font-family: 'Open Sans', verdana, arial, sans-serif; font-size: 12px; fill: rgb(68, 68, 68); fill-opacity: 1; white-space: pre;"><tspan class="line" dy="0em" x="0" y="0">Strong Lager</tspan><tspan class="line" dy="1.3em" x="0" y="0">5.64%</tspan></text></g></g><g class="slice"><path class="surface" d="M744.613946555015,265.23252368797034a48,48 0 0 0 -1.0663605583581186,-16.546352424719895l108.84436732553276,-26.398933719082272a160,160 0 0 1 3.5545351945270625,55.15450808239966Z" style="pointer-events: none; fill: rgb(227, 119, 194); fill-opacity: 1; stroke-width: 0; stroke: rgb(68, 68, 68); stroke-opacity: 1;"/><g class="slicetext"><text data-notex="1" class="slicetext" transform="translate(808.6540711406478,250.57894282412548)scale(0.724874124402454)rotate(-3.687433942044663)" text-anchor="middle" x="0" y="0" style="font-family: 'Open Sans', verdana, arial, sans-serif; font-size: 12px; fill: rgb(68, 68, 68); fill-opacity: 1; white-space: pre;"><tspan class="line" dy="0em" x="0" y="0">Specialty &amp; Seasonal</tspan><tspan class="line" dy="1.3em" x="0" y="0">5.53%</tspan></text></g></g><g class="slice"><path class="surface" d="M743.5475859966568,248.68617126325046a48,48 0 0 0 -6.592604426839415,-15.136094730844492l93.46162366290746,-61.71648809105275a160,160 0 0 1 21.975348089464717,50.45364910281498Z" style="pointer-events: none; fill: rgb(148, 103, 189); fill-opacity: 1; stroke-width: 0; stroke: rgb(68, 68, 68); stroke-opacity: 1;"/><g class="slicetext"><text data-notex="1" class="slicetext" transform="translate(818.2494789409398,203.81374392958614)rotate(-23.535782737820966)" text-anchor="middle" x="0" y="0" style="font-family: 'Open Sans', verdana, arial, sans-serif; font-size: 12px; fill: rgb(255, 255, 255); fill-opacity: 1; white-space: pre;"><tspan class="line" dy="0em" x="0" y="0">Pilsner</tspan><tspan class="line" dy="1.3em" x="0" y="0">5.5%</tspan></text></g></g><g class="slice"><path class="surface" d="M736.9549815698175,233.55007653240597a48,48 0 0 0 -10.114378506143229,-11.067542973831614l69.86140714857325,-87.54075502999319a160,160 0 0 1 33.71459502047743,36.89180991277205Z" style="pointer-events: none; fill: rgb(44, 160, 44); fill-opacity: 1; stroke-width: 0; stroke: rgb(68, 68, 68); stroke-opacity: 1;"/><g class="slicetext"><text data-notex="1" class="slicetext" transform="translate(794.806753361615,166.38708093327332)rotate(-42.42348755516241)" text-anchor="middle" x="0" y="0" style="font-family: 'Open Sans', verdana, arial, sans-serif; font-size: 12px; fill: rgb(255, 255, 255); fill-opacity: 1; white-space: pre;"><tspan class="line" dy="0em" x="0" y="0">Lager</tspan><tspan class="line" dy="1.3em" x="0" y="0">4.99%</tspan></text></g></g><g class="slice"><path class="surface" d="M726.8406030636743,222.48253355857435a48,48 0 0 0 -10.533905216848371,-6.384470630667229l45.28229497592705,-102.43785316821672a160,160 0 0 1 35.11301738949457,21.281568768890764Z" style="pointer-events: none; fill: rgb(152, 223, 138); fill-opacity: 1; stroke-width: 0; stroke: rgb(68, 68, 68); stroke-opacity: 1;"/><g class="slicetext"><text data-notex="1" class="slicetext" transform="translate(761.735098848893,148.20394311844066)scale(0.8183536821704009)rotate(-58.780460926329)" text-anchor="middle" x="0" y="0" style="font-family: 'Open Sans', verdana, arial, sans-serif; font-size: 12px; fill: rgb(68, 68, 68); fill-opacity: 1; white-space: pre;"><tspan class="line" dy="0em" x="0" y="0">Low Alcohol</tspan><tspan class="line" dy="1.3em" x="0" y="0">4.1%</tspan></text></g></g></g></g><g class="iciclelayer"/><g class="treemaplayer"/><g class="sunburstlayer"/><g class="glimages"/><defs id="topdefs-abdfe7"><g class="clips"/><clipPath id="legendabdfe7"><rect width="172" height="320" x="0" y="0"/></clipPath></defs><g class="layer-above"><g class="imagelayer"/><g class="shapelayer"/></g><g class="infolayer"><g class="legend" pointer-events="all" transform="translate(915.8000000000001,100)"><rect class="bg" shape-rendering="crispEdges" style="stroke: rgb(68, 68, 68); stroke-opacity: 1; fill: rgb(255, 255, 255); fill-opacity: 1; stroke-width: 0px;" width="172" height="320" x="0" y="0"/><g class="scrollbox" transform="" clip-path="url(#legendabdfe7)"><g class="groups"><g class="traces" transform="translate(0,14.5)" style="opacity: 1;"><text class="legendtext" text-anchor="start" x="40" y="4.680000000000001" style="font-family: 'Open Sans', verdana, arial, sans-serif; font-size: 12px; fill: rgb(42, 63, 95); fill-opacity: 1; white-space: pre;">Stout</text><g class="layers" style="opacity: 1;"><g class="legendfill"/><g class="legendlines"/><g class="legendsymbols"><g class="legendpoints"><path class="legendpie" d="M6,6H-6V-6H6Z" transform="translate(20,0)" style="fill: rgb(247, 182, 210); fill-opacity: 1; stroke-width: 0; stroke: rgb(68, 68, 68); stroke-opacity: 1;"/></g></g></g><rect class="legendtoggle" x="0" y="-9.5" width="166.046875" height="19" style="fill: rgb(0, 0, 0); fill-opacity: 0;"/></g><g class="traces" transform="translate(0,33.5)" style="opacity: 1;"><text class="legendtext" text-anchor="start" x="40" y="4.680000000000001" style="font-family: 'Open Sans', verdana, arial, sans-serif; font-size: 12px; fill: rgb(42, 63, 95); fill-opacity: 1; white-space: pre;">Sour Ale</text><g class="layers" style="opacity: 1;"><g class="legendfill"/><g class="legendlines"/><g class="legendsymbols"><g class="legendpoints"><path class="legendpie" d="M6,6H-6V-6H6Z" transform="translate(20,0)" style="fill: rgb(196, 156, 148); fill-opacity: 1; stroke-width: 0; stroke: rgb(68, 68, 68); stroke-opacity: 1;"/></g></g></g><rect class="legendtoggle" x="0" y="-9.5" width="166.046875" height="19" style="fill: rgb(0, 0, 0); fill-opacity: 0;"/></g><g class="traces" transform="translate(0,52.5)" style="opacity: 1;"><text class="legendtext" text-anchor="start" x="40" y="4.680000000000001" style="font-family: 'Open Sans', verdana, arial, sans-serif; font-size: 12px; fill: rgb(42, 63, 95); fill-opacity: 1; white-space: pre;">Porter</text><g class="layers" style="opacity: 1;"><g class="legendfill"/><g class="legendlines"/><g class="legendsymbols"><g class="legendpoints"><path class="legendpie" d="M6,6H-6V-6H6Z" transform="translate(20,0)" style="fill: rgb(197, 176, 213); fill-opacity: 1; stroke-width: 0; stroke: rgb(68, 68, 68); stroke-opacity: 1;"/></g></g></g><rect class="legendtoggle" x="0" y="-9.5" width="166.046875" height="19" style="fill: rgb(0, 0, 0); fill-opacity: 0;"/></g><g class="traces" transform="translate(0,71.5)" style="opacity: 1;"><text class="legendtext" text-anchor="start" x="40" y="4.680000000000001" style="font-family: 'Open Sans', verdana, arial, sans-serif; font-size: 12px; fill: rgb(42, 63, 95); fill-opacity: 1; white-space: pre;">India Pale Ale (IPA)</text><g class="layers" style="opacity: 1;"><g class="legendfill"/><g class="legendlines"/><g class="legendsymbols"><g class="legendpoints"><path class="legendpie" d="M6,6H-6V-6H6Z" transform="translate(20,0)" style="fill: rgb(255, 187, 120); fill-opacity: 1; stroke-width: 0; stroke: rgb(68, 68, 68); stroke-opacity: 1;"/></g></g></g><rect class="legendtoggle" x="0" y="-9.5" width="166.046875" height="19" style="fill: rgb(0, 0, 0); fill-opacity: 0;"/></g><g class="traces" transform="translate(0,90.5)" style="opacity: 1;"><text class="legendtext" text-anchor="start" x="40" y="4.680000000000001" style="font-family: 'Open Sans', verdana, arial, sans-serif; font-size: 12px; fill: rgb(42, 63, 95); fill-opacity: 1; white-space: pre;">Strong Ale</text><g class="layers" style="opacity: 1;"><g class="legendfill"/><g class="legendlines"/><g class="legendsymbols"><g class="legendpoints"><path class="legendpie" d="M6,6H-6V-6H6Z" transform="translate(20,0)" style="fill: rgb(127, 127, 127); fill-opacity: 1; stroke-width: 0; stroke: rgb(68, 68, 68); stroke-opacity: 1;"/></g></g></g><rect class="legendtoggle" x="0" y="-9.5" width="166.046875" height="19" style="fill: rgb(0, 0, 0); fill-opacity: 0;"/></g><g class="traces" transform="translate(0,109.5)" style="opacity: 1;"><text class="legendtext" text-anchor="start" x="40" y="4.680000000000001" style="font-family: 'Open Sans', verdana, arial, sans-serif; font-size: 12px; fill: rgb(42, 63, 95); fill-opacity: 1; white-space: pre;">Belgian Ale</text><g class="layers" style="opacity: 1;"><g class="legendfill"/><g class="legendlines"/><g class="legendsymbols"><g class="legendpoints"><path class="legendpie" d="M6,6H-6V-6H6Z" transform="translate(20,0)" style="fill: rgb(31, 119, 180); fill-opacity: 1; stroke-width: 0; stroke: rgb(68, 68, 68); stroke-opacity: 1;"/></g></g></g><rect class="legendtoggle" x="0" y="-9.5" width="166.046875" height="19" style="fill: rgb(0, 0, 0); fill-opacity: 0;"/></g><g class="traces" transform="translate(0,128.5)" style="opacity: 1;"><text class="legendtext" text-anchor="start" x="40" y="4.680000000000001" style="font-family: 'Open Sans', verdana, arial, sans-serif; font-size: 12px; fill: rgb(42, 63, 95); fill-opacity: 1; white-space: pre;">Saison &amp; Farmhouse</text><g class="layers" style="opacity: 1;"><g class="legendfill"/><g class="legendlines"/><g class="legendsymbols"><g class="legendpoints"><path class="legendpie" d="M6,6H-6V-6H6Z" transform="translate(20,0)" style="fill: rgb(140, 86, 75); fill-opacity: 1; stroke-width: 0; stroke: rgb(68, 68, 68); stroke-opacity: 1;"/></g></g></g><rect class="legendtoggle" x="0" y="-9.5" width="166.046875" height="19" style="fill: rgb(0, 0, 0); fill-opacity: 0;"/></g><g class="traces" transform="translate(0,147.5)" style="opacity: 1;"><text class="legendtext" text-anchor="start" x="40" y="4.680000000000001" style="font-family: 'Open Sans', verdana, arial, sans-serif; font-size: 12px; fill: rgb(42, 63, 95); fill-opacity: 1; white-space: pre;">Hybrid Styles</text><g class="layers" style="opacity: 1;"><g class="legendfill"/><g class="legendlines"/><g class="legendsymbols"><g class="legendpoints"><path class="legendpie" d="M6,6H-6V-6H6Z" transform="translate(20,0)" style="fill: rgb(255, 127, 14); fill-opacity: 1; stroke-width: 0; stroke: rgb(68, 68, 68); stroke-opacity: 1;"/></g></g></g><rect class="legendtoggle" x="0" y="-9.5" width="166.046875" height="19" style="fill: rgb(0, 0, 0); fill-opacity: 0;"/></g><g class="traces" transform="translate(0,166.5)" style="opacity: 1;"><text class="legendtext" text-anchor="start" x="40" y="4.680000000000001" style="font-family: 'Open Sans', verdana, arial, sans-serif; font-size: 12px; fill: rgb(42, 63, 95); fill-opacity: 1; white-space: pre;">Pale Ale</text><g class="layers" style="opacity: 1;"><g class="legendfill"/><g class="legendlines"/><g class="legendsymbols"><g class="legendpoints"><path class="legendpie" d="M6,6H-6V-6H6Z" transform="translate(20,0)" style="fill: rgb(255, 152, 150); fill-opacity: 1; stroke-width: 0; stroke: rgb(68, 68, 68); stroke-opacity: 1;"/></g></g></g><rect class="legendtoggle" x="0" y="-9.5" width="166.046875" height="19" style="fill: rgb(0, 0, 0); fill-opacity: 0;"/></g><g class="traces" transform="translate(0,185.5)" style="opacity: 1;"><text class="legendtext" text-anchor="start" x="40" y="4.680000000000001" style="font-family: 'Open Sans', verdana, arial, sans-serif; font-size: 12px; fill: rgb(42, 63, 95); fill-opacity: 1; white-space: pre;">Other Ales</text><g class="layers" style="opacity: 1;"><g class="legendfill"/><g class="legendlines"/><g class="legendsymbols"><g class="legendpoints"><path class="legendpie" d="M6,6H-6V-6H6Z" transform="translate(20,0)" style="fill: rgb(214, 39, 40); fill-opacity: 1; stroke-width: 0; stroke: rgb(68, 68, 68); stroke-opacity: 1;"/></g></g></g><rect class="legendtoggle" x="0" y="-9.5" width="166.046875" height="19" style="fill: rgb(0, 0, 0); fill-opacity: 0;"/></g><g class="traces" transform="translate(0,204.5)" style="opacity: 1;"><text class="legendtext" text-anchor="start" x="40" y="4.680000000000001" style="font-family: 'Open Sans', verdana, arial, sans-serif; font-size: 12px; fill: rgb(42, 63, 95); fill-opacity: 1; white-space: pre;">Wheat Beer</text><g class="layers" style="opacity: 1;"><g class="legendfill"/><g class="legendlines"/><g class="legendsymbols"><g class="legendpoints"><path class="legendpie" d="M6,6H-6V-6H6Z" transform="translate(20,0)" style="fill: rgb(188, 189, 34); fill-opacity: 1; stroke-width: 0; stroke: rgb(68, 68, 68); stroke-opacity: 1;"/></g></g></g><rect class="legendtoggle" x="0" y="-9.5" width="166.046875" height="19" style="fill: rgb(0, 0, 0); fill-opacity: 0;"/></g><g class="traces" transform="translate(0,223.5)" style="opacity: 1;"><text class="legendtext" text-anchor="start" x="40" y="4.680000000000001" style="font-family: 'Open Sans', verdana, arial, sans-serif; font-size: 12px; fill: rgb(42, 63, 95); fill-opacity: 1; white-space: pre;">Strong Lager</text><g class="layers" style="opacity: 1;"><g class="legendfill"/><g class="legendlines"/><g class="legendsymbols"><g class="legendpoints"><path class="legendpie" d="M6,6H-6V-6H6Z" transform="translate(20,0)" style="fill: rgb(199, 199, 199); fill-opacity: 1; stroke-width: 0; stroke: rgb(68, 68, 68); stroke-opacity: 1;"/></g></g></g><rect class="legendtoggle" x="0" y="-9.5" width="166.046875" height="19" style="fill: rgb(0, 0, 0); fill-opacity: 0;"/></g><g class="traces" transform="translate(0,242.5)" style="opacity: 1;"><text class="legendtext" text-anchor="start" x="40" y="4.680000000000001" style="font-family: 'Open Sans', verdana, arial, sans-serif; font-size: 12px; fill: rgb(42, 63, 95); fill-opacity: 1; white-space: pre;">Dark Lager</text><g class="layers" style="opacity: 1;"><g class="legendfill"/><g class="legendlines"/><g class="legendsymbols"><g class="legendpoints"><path class="legendpie" d="M6,6H-6V-6H6Z" transform="translate(20,0)" style="fill: rgb(174, 199, 232); fill-opacity: 1; stroke-width: 0; stroke: rgb(68, 68, 68); stroke-opacity: 1;"/></g></g></g><rect class="legendtoggle" x="0" y="-9.5" width="166.046875" height="19" style="fill: rgb(0, 0, 0); fill-opacity: 0;"/></g><g class="traces" transform="translate(0,261.5)" style="opacity: 1;"><text class="legendtext" text-anchor="start" x="40" y="4.680000000000001" style="font-family: 'Open Sans', verdana, arial, sans-serif; font-size: 12px; fill: rgb(42, 63, 95); fill-opacity: 1; white-space: pre;">Specialty &amp; Seasonal</text><g class="layers" style="opacity: 1;"><g class="legendfill"/><g class="legendlines"/><g class="legendsymbols"><g class="legendpoints"><path class="legendpie" d="M6,6H-6V-6H6Z" transform="translate(20,0)" style="fill: rgb(227, 119, 194); fill-opacity: 1; stroke-width: 0; stroke: rgb(68, 68, 68); stroke-opacity: 1;"/></g></g></g><rect class="legendtoggle" x="0" y="-9.5" width="166.046875" height="19" style="fill: rgb(0, 0, 0); fill-opacity: 0;"/></g><g class="traces" transform="translate(0,280.5)" style="opacity: 1;"><text class="legendtext" text-anchor="start" x="40" y="4.680000000000001" style="font-family: 'Open Sans', verdana, arial, sans-serif; font-size: 12px; fill: rgb(42, 63, 95); fill-opacity: 1; white-space: pre;">Pilsner</text><g class="layers" style="opacity: 1;"><g class="legendfill"/><g class="legendlines"/><g class="legendsymbols"><g class="legendpoints"><path class="legendpie" d="M6,6H-6V-6H6Z" transform="translate(20,0)" style="fill: rgb(148, 103, 189); fill-opacity: 1; stroke-width: 0; stroke: rgb(68, 68, 68); stroke-opacity: 1;"/></g></g></g><rect class="legendtoggle" x="0" y="-9.5" width="166.046875" height="19" style="fill: rgb(0, 0, 0); fill-opacity: 0;"/></g><g class="traces" transform="translate(0,299.5)" style="opacity: 1;"><text class="legendtext" text-anchor="start" x="40" y="4.680000000000001" style="font-family: 'Open Sans', verdana, arial, sans-serif; font-size: 12px; fill: rgb(42, 63, 95); fill-opacity: 1; white-space: pre;">Lager</text><g class="layers" style="opacity: 1;"><g class="legendfill"/><g class="legendlines"/><g class="legendsymbols"><g class="legendpoints"><path class="legendpie" d="M6,6H-6V-6H6Z" transform="translate(20,0)" style="fill: rgb(44, 160, 44); fill-opacity: 1; stroke-width: 0; stroke: rgb(68, 68, 68); stroke-opacity: 1;"/></g></g></g><rect class="legendtoggle" x="0" y="-9.5" width="166.046875" height="19" style="fill: rgb(0, 0, 0); fill-opacity: 0;"/></g><g class="traces" transform="translate(0,318.5)" style="opacity: 1;"><text class="legendtext" text-anchor="start" x="40" y="4.680000000000001" style="font-family: 'Open Sans', verdana, arial, sans-serif; font-size: 12px; fill: rgb(42, 63, 95); fill-opacity: 1; white-space: pre;">Low Alcohol</text><g class="layers" style="opacity: 1;"><g class="legendfill"/><g class="legendlines"/><g class="legendsymbols"><g class="legendpoints"><path class="legendpie" d="M6,6H-6V-6H6Z" transform="translate(20,0)" style="fill: rgb(152, 223, 138); fill-opacity: 1; stroke-width: 0; stroke: rgb(68, 68, 68); stroke-opacity: 1;"/></g></g></g><rect class="legendtoggle" x="0" y="-9.5" width="166.046875" height="19" style="fill: rgb(0, 0, 0); fill-opacity: 0;"/></g></g></g><rect class="scrollbar" rx="20" ry="3" width="0" height="0" style="fill: rgb(128, 139, 164); fill-opacity: 1;" x="0" y="0"/></g><g class="g-gtitle"><text class="gtitle" x="550" y="50" text-anchor="middle" dy="0em" style="opacity: 1; font-family: 'Open Sans', verdana, arial, sans-serif; font-size: 17px; fill: rgb(42, 63, 95); fill-opacity: 1; white-space: pre;">Beer styles in Belgium and Canada (Based on Average Ratings)</text></g><g class="annotation" data-index="0" style="opacity: 1;"><g class="annotation-text-g" transform="rotate(0,270.70000000000005,78.49999999999997)"><g class="cursor-pointer" transform="translate(239,68)"><rect class="bg" x="0.5" y="0.5" width="62" height="20" style="stroke-width: 1px; stroke: rgb(0, 0, 0); stroke-opacity: 0; fill: rgb(0, 0, 0); fill-opacity: 0;"/><text class="annotation-text" text-anchor="middle" x="31.59375" y="15.5" style="font-family: Arial; font-size: 15px; fill: rgb(0, 0, 0); fill-opacity: 1; white-space: pre;"><tspan style="font-weight:bold">Belgium</tspan></text></g></g></g><g class="annotation" data-index="1" style="opacity: 1;"><g class="annotation-text-g" transform="rotate(0,687.8000000000001,78.49999999999997)"><g class="cursor-pointer" transform="translate(659,68)"><rect class="bg" x="0.5" y="0.5" width="57" height="20" style="stroke-width: 1px; stroke: rgb(0, 0, 0); stroke-opacity: 0; fill: rgb(0, 0, 0); fill-opacity: 0;"/><text class="annotation-text" text-anchor="middle" x="29.09375" y="15.5" style="font-family: Arial; font-size: 15px; fill: rgb(0, 0, 0); fill-opacity: 1; white-space: pre;"><tspan style="font-weight:bold">Canada</tspan></text></g></g></g></g></svg>